<svg width="60" height="60" viewBox="0 0 60 60" fill="none" xmlns="http://www.w3.org/2000/svg">
<circle cx="30" cy="30" r="30" fill="#4E6297"/>
<path d="M43.5 20.728C43.5 18.4819 41.5181 16.5 39.272 16.5H22.228C19.9819 16.5 18 18.4819 18 20.728V37.772C18 40.0181 19.9819 42 22.228 42H30.8161V32.3549H27.6451V28.1269H30.8161V26.4093C30.8161 23.5026 32.9301 20.9922 35.5725 20.9922H39.0078V25.2202H35.5725C35.1762 25.2202 34.7798 25.6166 34.7798 26.4093V28.1269H39.0078V32.3549H34.7798V42H39.272C41.5181 42 43.5 40.0181 43.5 37.772V20.728Z" fill="white"/>
</svg>
