<svg width="60" height="60" viewBox="0 0 60 60" fill="none" xmlns="http://www.w3.org/2000/svg">
<circle cx="30" cy="30" r="30" fill="#2F89CE"/>
<path d="M14.0261 30.5611L20.9232 33.1329L23.6119 41.7836C23.7288 42.3681 24.4302 42.485 24.8978 42.1343L28.7555 38.9779C29.1062 38.6272 29.6907 38.6272 30.1583 38.9779L37.0554 44.0047C37.523 44.3554 38.2244 44.1216 38.3413 43.5371L43.485 18.988C43.6019 18.4035 43.0174 17.819 42.4329 18.0528L14.0261 29.0414C13.3246 29.2752 13.3246 30.3273 14.0261 30.5611ZM23.2612 31.847L36.8216 23.5471C37.0554 23.4302 37.2892 23.7809 37.0554 23.8978L25.9499 34.3019C25.5992 34.6526 25.2485 35.1202 25.2485 35.7047L24.8978 38.5103C24.8978 38.861 24.3133 38.9779 24.1964 38.5103L22.7936 33.3667C22.4429 32.7822 22.6767 32.0808 23.2612 31.847Z" fill="white"/>
</svg>
