<svg width="60" height="60" viewBox="0 0 60 60" fill="none" xmlns="http://www.w3.org/2000/svg">
<circle cx="30" cy="30" r="30" fill="#F40000"/>
<path d="M43.0697 28.3697C43.0697 27.7879 42.9727 27.1091 42.9727 26.3333C42.8758 25.5576 42.7788 24.7818 42.6818 24.103C42.4879 23.3273 42.197 22.7455 41.6151 22.2606C41.1303 21.7758 40.4515 21.4848 39.7727 21.3879C37.5424 21.097 34.2455 21 29.7849 21C25.3243 21 21.9303 21.097 19.797 21.3879C19.1182 21.4848 18.4394 21.7758 17.9545 22.2606C17.4697 22.7455 17.0818 23.3273 16.8879 24.103C16.6939 24.7818 16.597 25.4606 16.597 26.3333C16.5 27.1091 16.5 27.7879 16.5 28.3697C16.5 28.9515 16.5 29.6303 16.5 30.6C16.5 31.5697 16.5 32.3455 16.5 32.8303C16.5 33.4121 16.597 34.0909 16.597 34.8667C16.6939 35.6424 16.7909 36.4182 16.8879 37.097C17.0818 37.8727 17.3727 38.4545 17.9545 38.9394C18.4394 39.4242 19.1182 39.7151 19.797 39.8121C22.0273 40.103 25.3243 40.2 29.7849 40.2C34.2455 40.2 37.6394 40.103 39.7727 39.8121C40.4515 39.7151 41.1303 39.4242 41.6151 38.9394C42.1 38.4545 42.4879 37.8727 42.6818 37.097C42.8758 36.4182 42.9727 35.7394 42.9727 34.8667C43.0697 34.0909 43.0697 33.4121 43.0697 32.8303C43.0697 32.2485 43.0697 31.5697 43.0697 30.6C43.0697 29.6303 43.0697 28.8545 43.0697 28.3697ZM34.9242 31.3758L27.2636 36.1273C27.1667 36.2242 26.9727 36.3212 26.7788 36.3212C26.5849 36.3212 26.4879 36.3212 26.2939 36.2242C26.003 36.0303 25.8091 35.7394 25.8091 35.3515V25.7515C25.8091 25.3636 26.003 25.0727 26.2939 24.8788C26.5849 24.6848 26.9727 24.6848 27.2636 24.8788L34.9242 29.6303C35.2152 29.8242 35.4091 30.1151 35.4091 30.4061C35.4091 30.697 35.2152 31.1818 34.9242 31.3758Z" fill="white"/>
</svg>
