<?xml version="1.0" encoding="UTF-8"?>
<svg version="1.1" xmlns="http://www.w3.org/2000/svg" width="326" height="81">
<path d="M0 0 C5.94 0 11.88 0 18 0 C18.66 1.32 19.32 2.64 20 4 C20.66 4 21.32 4 22 4 C22 7.3 22 10.6 22 14 C23.35618499 12.87465895 23.35618499 12.87465895 23.0625 9.9375 C23.041875 8.968125 23.02125 7.99875 23 7 C23.33 8.32 23.66 9.64 24 11 C26.97 11 29.94 11 33 11 C32.505 9.515 32.505 9.515 32 8 C32.99 8 33.98 8 35 8 C35.268125 7.401875 35.53625 6.80375 35.8125 6.1875 C37.03631489 3.93310414 38.00863676 2.605449 40 1 C42.05297852 0.73535156 42.05297852 0.73535156 44.37890625 0.890625 C45.21744141 0.94089844 46.05597656 0.99117187 46.91992188 1.04296875 C47.79197266 1.11128906 48.66402344 1.17960938 49.5625 1.25 C50.43841797 1.30285156 51.31433594 1.35570312 52.21679688 1.41015625 C58.67550743 1.83775372 58.67550743 1.83775372 61 3 C61.66 2.01 62.32 1.02 63 0 C64.97119141 -0.34057617 64.97119141 -0.34057617 67.3515625 -0.29296875 C68.62773437 -0.2784668 68.62773437 -0.2784668 69.9296875 -0.26367188 C70.81914063 -0.23853516 71.70859375 -0.21339844 72.625 -0.1875 C73.97078125 -0.16719727 73.97078125 -0.16719727 75.34375 -0.14648438 C77.56309789 -0.11106925 79.78125188 -0.06168461 82 0 C82.99 2.475 82.99 2.475 84 5 C84.37616455 4.51104248 84.7523291 4.02208496 85.13989258 3.51831055 C87.72837959 1.405461 89.45199055 1.6566293 92.76171875 1.70703125 C93.87998047 1.71669922 94.99824219 1.72636719 96.15039062 1.73632812 C97.90125977 1.7740332 97.90125977 1.7740332 99.6875 1.8125 C100.86634766 1.82603516 102.04519531 1.83957031 103.25976562 1.85351562 C106.17363411 1.88890674 109.08658945 1.93828191 112 2 C112.495 2.99 112.495 2.99 113 4 C113.33 3.01 113.66 2.02 114 1 C117.4374823 0.97098606 120.87493312 0.95319665 124.3125 0.9375 C125.28896484 0.92912109 126.26542969 0.92074219 127.27148438 0.91210938 C128.20927734 0.90888672 129.14707031 0.90566406 130.11328125 0.90234375 C130.97735596 0.89710693 131.84143066 0.89187012 132.73168945 0.88647461 C135 1 135 1 138 2 C139.48354153 2.01546261 140.96829574 1.96835798 142.44921875 1.87890625 C143.72055664 1.80639648 143.72055664 1.80639648 145.01757812 1.73242188 C146.33918945 1.64831055 146.33918945 1.64831055 147.6875 1.5625 C148.58017578 1.51029297 149.47285156 1.45808594 150.39257812 1.40429688 C152.5954156 1.2747182 154.79778873 1.13975754 157 1 C157 1.66 157 2.32 157 3 C157.5676709 2.84370117 158.1353418 2.68740234 158.72021484 2.52636719 C162.64133602 1.62104086 166.61715052 1.49525646 170.625 1.25 C171.49640625 1.18167969 172.3678125 1.11335937 173.265625 1.04296875 C174.09835938 0.99269531 174.93109375 0.94242188 175.7890625 0.890625 C176.54912598 0.83938477 177.30918945 0.78814453 178.09228516 0.73535156 C178.72183105 0.82268555 179.35137695 0.91001953 180 1 C183.01840125 5.52760188 184.24339186 7.52368308 184 13 C184.33 12.34 184.66 11.68 185 11 C187.97 11 190.94 11 194 11 C194.33 10.34 194.66 9.68 195 9 C195.95577057 7.63461347 196.96352976 6.30518475 198 5 C198.72703125 3.95392578 198.72703125 3.95392578 199.46875 2.88671875 C203.43541755 -0.06991771 207.38231769 0.53533026 212.1875 0.6875 C213.11498047 0.69716797 214.04246094 0.70683594 214.99804688 0.71679688 C221.83177548 0.83177548 221.83177548 0.83177548 223 2 C224.4913391 2.01662231 225.98360805 1.963192 227.47265625 1.87890625 C228.82133789 1.80639648 228.82133789 1.80639648 230.19726562 1.73242188 C231.61555664 1.64831055 231.61555664 1.64831055 233.0625 1.5625 C234.01189453 1.51029297 234.96128906 1.45808594 235.93945312 1.40429688 C238.29326952 1.27418642 240.64670699 1.13920888 243 1 C243 1.66 243 2.32 243 3 C243.66 2.67 244.32 2.34 245 2 C246.48588023 1.90460127 247.97590565 1.86926516 249.46484375 1.8671875 C250.34720703 1.86589844 251.22957031 1.86460938 252.13867188 1.86328125 C253.5240918 1.86908203 253.5240918 1.86908203 254.9375 1.875 C255.85724609 1.87113281 256.77699219 1.86726562 257.72460938 1.86328125 C259.05008789 1.86521484 259.05008789 1.86521484 260.40234375 1.8671875 C261.61651978 1.86887939 261.61651978 1.86887939 262.85522461 1.87060547 C265 2 265 2 268 3 C269.1875 6.0625 269.1875 6.0625 270 9 C270.99 9 271.98 9 273 9 C273 8.01 273 7.02 273 6 C273.31802943 4.33034549 273.64984951 2.66321482 274 1 C274 0.67 274 0.34 274 0 C277.06273831 -0.05410136 280.12451452 -0.09372225 283.1875 -0.125 C284.05181641 -0.14175781 284.91613281 -0.15851562 285.80664062 -0.17578125 C290.28853887 -0.2101253 293.97630843 -0.2345161 298 2 C298.66 2.66 299.32 3.32 300 4 C299.71395102 5.67542976 299.38218767 7.34385343 299 9 C299.33 9.33 299.66 9.66 300 10 C300 10.99 300 11.98 300 13 C299.34 13.66 298.68 14.32 298 15 C298 15.66 298 16.32 298 17 C298.66 17.33 299.32 17.66 300 18 C298.74458443 20.51083114 297.49936512 20.87125446 295 22 C295.66 22.33 296.32 22.66 297 23 C297.1875 26.375 297.1875 26.375 297 30 C295.515 30.99 295.515 30.99 294 32 C294.99 32 295.98 32 297 32 C296.979375 32.928125 296.95875 33.85625 296.9375 34.8125 C296.84230396 38.02286011 296.84230396 38.02286011 298 41 C297.67 41.99 297.34 42.98 297 44 C298.32 44.33 299.64 44.66 301 45 C300.195625 44.979375 299.39125 44.95875 298.5625 44.9375 C296.06645115 44.70366379 296.06645115 44.70366379 295 46 C297.31 46 299.62 46 302 46 C302 47.32 302 48.64 302 50 C301.34 50.66 300.68 51.32 300 52 C300 52.33 300 52.66 300 53 C291.42 53 282.84 53 274 53 C273.67 51.68 273.34 50.36 273 49 C272.67 49 272.34 49 272 49 C271.34 49.66 270.68 50.32 270 51 C270 49.35 270 47.7 270 46 C269.896875 47.11375 269.79375 48.2275 269.6875 49.375 C269.3471875 51.169375 269.3471875 51.169375 269 53 C265.88783261 55.07477826 265.15939492 55.25522588 261.62109375 55.265625 C260.78255859 55.26820312 259.94402344 55.27078125 259.08007812 55.2734375 C258.20802734 55.26570313 257.33597656 55.25796875 256.4375 55.25 C255.12362305 55.26160156 255.12362305 55.26160156 253.78320312 55.2734375 C252.94595703 55.27085938 252.10871094 55.26828125 251.24609375 55.265625 C250.47966553 55.26336914 249.7132373 55.26111328 248.92358398 55.25878906 C247 55 247 55 245 53 C242.3784358 52.72172748 242.3784358 52.72172748 239.3359375 52.8046875 C237.65371094 52.81435547 237.65371094 52.81435547 235.9375 52.82421875 C234.761875 52.84097656 233.58625 52.85773438 232.375 52.875 C231.19164062 52.88402344 230.00828125 52.89304688 228.7890625 52.90234375 C225.85917477 52.92597188 222.9296866 52.95891486 220 53 C219.80448662 51.39679026 219.61888017 49.79237014 219.4375 48.1875 C219.33308594 47.29417969 219.22867188 46.40085938 219.12109375 45.48046875 C219 43 219 43 220 40 C219.01 40.99 218.02 41.98 217 43 C217.66 43.99 218.32 44.98 219 46 C218.34 46 217.68 46 217 46 C216.67 46.99 216.34 47.98 216 49 C215.34 49 214.68 49 214 49 C214 49.66 214 50.32 214 51 C214.99 51.33 215.98 51.66 217 52 C212.35645033 53.2871105 207.72921926 53.47073847 202.9375 53.75 C201.57141602 53.85248047 201.57141602 53.85248047 200.17773438 53.95703125 C199.30310547 54.00730469 198.42847656 54.05757812 197.52734375 54.109375 C196.73062256 54.16061523 195.93390137 54.21185547 195.11303711 54.26464844 C192.44774968 53.93083312 191.67499255 53.03645345 190 51 C189.67 50.67 189.34 50.34 189 50 C188.54625 50.45375 188.0925 50.9075 187.625 51.375 C183.96029984 55.03970016 182.62202272 55.27688987 177.5234375 55.32226562 C176.27433594 55.31743164 176.27433594 55.31743164 175 55.3125 C174.16726562 55.32861328 173.33453125 55.34472656 172.4765625 55.36132812 C171.67992187 55.36197266 170.88328125 55.36261719 170.0625 55.36328125 C169.33160156 55.36626221 168.60070312 55.36924316 167.84765625 55.37231445 C166 55 166 55 164 52 C163.01 52.495 163.01 52.495 162 53 C160.63153259 53.09156105 159.25870253 53.12193944 157.88717651 53.12025452 C157.02618347 53.12162918 156.16519043 53.12300385 155.27810669 53.12442017 C154.33152191 53.12082489 153.38493713 53.11722961 152.40966797 53.11352539 C150.91693359 53.11374443 150.91693359 53.11374443 149.39404297 53.1139679 C146.09340257 53.11326931 142.79281808 53.10547944 139.4921875 53.09765625 C137.20818106 53.09579188 134.92417422 53.09436807 132.64016724 53.09336853 C126.61988222 53.08954487 120.59962121 53.07971586 114.5793457 53.06866455 C108.43961919 53.05844718 102.29988881 53.05387021 96.16015625 53.04882812 C84.10676027 53.03809348 72.05338213 53.02101885 60 53 C59.06222526 48.5187996 58.922525 44.57102507 59 40 C59 41.33333333 59 42.66666667 59 44 C58.34 44 57.68 44 57 44 C56.505 44.99 56.505 44.99 56 46 C55.33333333 47.33333333 54.66666667 48.66666667 54 50 C54.99 50.495 54.99 50.495 56 51 C55.01 51 54.02 51 53 51 C52.505 51.99 52.505 51.99 52 53 C45.73 53.33 39.46 53.66 33 54 C32.67 53.34 32.34 52.68 32 52 C28.97065509 51.34227572 28.97065509 51.34227572 26 51 C25.67 51.66 25.34 52.32 25 53 C14.605 53.495 14.605 53.495 4 54 C3.67 53.34 3.34 52.68 3 52 C2.01 51.34 1.02 50.68 0 50 C0 48.68 0 47.36 0 46 C0.99 45.505 0.99 45.505 2 45 C3.10736685 39.34761442 3.36663932 33.61840611 2 28 C0.35 28 -1.3 28 -3 28 C-3.66523639 24.25804529 -4 20.79563172 -4 17 C-2.68 17 -1.36 17 0 17 C-0.515625 16.2575 -1.03125 15.515 -1.5625 14.75 C-3 12 -3 12 -2.75 9.875 C-2.5025 9.25625 -2.255 8.6375 -2 8 C-0.83462035 4.71058562 -0.83462035 4.71058562 0 0 Z M63 1 C63 1.33 63 1.66 63 2 C68.94 2 74.88 2 81 2 C81 1.67 81 1.34 81 1 C75.06 1 69.12 1 63 1 Z M292 2 C296 3 296 3 296 3 Z M59 5 C60 9 60 9 60 9 Z M220 5 C220 7.31 220 9.62 220 12 C222.36980013 9.04622502 222.36980013 9.04622502 222 5 C221.34 5 220.68 5 220 5 Z M265 5 C264.67 5.66 264.34 6.32 264 7 C265.32 6.67 266.64 6.34 268 6 C267.01 5.67 266.02 5.34 265 5 Z M37 6 C38 8 38 8 38 8 Z M159 6 C160 9 160 9 160 9 Z M86 7 C87 9 87 9 87 9 Z M108 7 C109 9 109 9 109 9 Z M134 7 C133.87625 7.639375 133.7525 8.27875 133.625 8.9375 C133.41875 9.618125 133.2125 10.29875 133 11 C132.01 11.495 132.01 11.495 131 12 C131 13.32 131 14.64 131 16 C130.01 16.495 130.01 16.495 129 17 C130.65 17 132.3 17 134 17 C135.60355101 13.49223216 136.22036864 10.85645121 136 7 C135.34 7 134.68 7 134 7 Z M61 9 C60.67 10.98 60.34 12.96 60 15 C60.66 15 61.32 15 62 15 C62 13.02 62 11.04 62 9 C61.67 9 61.34 9 61 9 Z M137 9 C138 12 138 12 138 12 Z M222 10 C223 12 223 12 223 12 Z M37 11 C38 13 38 13 38 13 Z M24 12 C24 12.33 24 12.66 24 13 C27.96 13 31.92 13 36 13 C36 12.67 36 12.34 36 12 C32.04 12 28.08 12 24 12 Z M247 12 C248 14 248 14 248 14 Z M135 13 C136 15 136 15 136 15 Z M57 16 C57.33 16.66 57.66 17.32 58 18 C58.33 17.34 58.66 16.68 59 16 C58.34 16 57.68 16 57 16 Z M85 16 C89 17 89 17 89 17 Z M90 16 C89.67 16.66 89.34 17.32 89 18 C89.66 18 90.32 18 91 18 C90.67 17.34 90.34 16.68 90 16 Z M220 17 C220.99 17.495 220.99 17.495 222 18 C222.33 18.66 222.66 19.32 223 20 C223 19.01 223 18.02 223 17 C222.01 17 221.02 17 220 17 Z M19 18 C19 18.33 19 18.66 19 19 C20.98 19 22.96 19 25 19 C25 18.67 25 18.34 25 18 C23.02 18 21.04 18 19 18 Z M181 18 C185 19 185 19 185 19 Z M57 19 C57.33 20.32 57.66 21.64 58 23 C58.33 21.68 58.66 20.36 59 19 C58.34 19 57.68 19 57 19 Z M160 19 C159.67 19.99 159.34 20.98 159 22 C159.99 21.67 160.98 21.34 162 21 C161.34 20.34 160.68 19.68 160 19 Z M219 19 C218.67 20.32 218.34 21.64 218 23 C218.66 23 219.32 23 220 23 C220 22.34 220 21.68 220 21 C220.66 20.67 221.32 20.34 222 20 C221.01 19.67 220.02 19.34 219 19 Z M83 22 C83.33 22.66 83.66 23.32 84 24 C84.33 23.34 84.66 22.68 85 22 C84.34 22 83.68 22 83 22 Z M131 23 C130.01 24.485 130.01 24.485 129 26 C125.375 27.1875 125.375 27.1875 122 28 C122 28.33 122 28.66 122 29 C123.98 29 125.96 29 128 29 C128 29.99 128 30.98 128 32 C126.35 32.33 124.7 32.66 123 33 C123 33.33 123 33.66 123 34 C124.98 34 126.96 34 129 34 C129.18175781 34.61488281 129.36351562 35.22976562 129.55078125 35.86328125 C129.92783203 37.07564453 129.92783203 37.07564453 130.3125 38.3125 C130.55613281 39.11300781 130.79976562 39.91351563 131.05078125 40.73828125 C132.04182023 43.09964573 133.08074943 44.33879993 135 46 C136.50156874 42.99686252 136.09281204 40.20932478 136.0625 36.875 C136.05347656 35.59367187 136.04445312 34.31234375 136.03515625 32.9921875 C136.02355469 32.00476562 136.01195312 31.01734375 136 30 C135.34 30 134.68 30 134 30 C134 28.35 134 26.7 134 25 C134.66 25 135.32 25 136 25 C136 24.34 136 23.68 136 23 C133.58380177 22.74969023 133.58380177 22.74969023 131 23 Z M245 23 C246 25 246 25 246 25 Z M247 23 C246.67 23.99 246.34 24.98 246 26 C246.66 26 247.32 26 248 26 C247.67 25.01 247.34 24.02 247 23 Z M86 24 C86.33 24.66 86.66 25.32 87 26 C88.98 26 90.96 26 93 26 C91.16116119 23.71271266 91.16116119 23.71271266 88.375 23.875 C87.199375 23.936875 87.199375 23.936875 86 24 Z M57 25 C57.33 26.32 57.66 27.64 58 29 C58.66 28.67 59.32 28.34 60 28 C59.67 27.01 59.34 26.02 59 25 C58.34 25 57.68 25 57 25 Z M217 25 C217.66 25.66 218.32 26.32 219 27 C219 26.34 219 25.68 219 25 C218.34 25 217.68 25 217 25 Z M161 26 C160.34 26.66 159.68 27.32 159 28 C160.98 28.99 160.98 28.99 163 30 C162.67 28.68 162.34 27.36 162 26 C161.67 26 161.34 26 161 26 Z M217 27 C217 28.65 217 30.3 217 32 C217.33 32 217.66 32 218 32 C218 30.35 218 28.7 218 27 C217.67 27 217.34 27 217 27 Z M243 27 C243.33 27.66 243.66 28.32 244 29 C244.33 28.34 244.66 27.68 245 27 C244.34 27 243.68 27 243 27 Z M56 28 C57 31 57 31 57 31 Z M221 28 C221 32.95 221 37.9 221 43 C221.33 43 221.66 43 222 43 C222 38.05 222 33.1 222 28 C221.67 28 221.34 28 221 28 Z M61 29 C62 32 62 32 62 32 Z M159 29 C159 30.98 159 32.96 159 35 C159.33 35 159.66 35 160 35 C160 33.02 160 31.04 160 29 C159.67 29 159.34 29 159 29 Z M59 30 C56.66608797 32.78114056 56.66608797 32.78114056 57.375 35.6875 C57.58125 36.450625 57.7875 37.21375 58 38 C58.66 37.67 59.32 37.34 60 37 C60 34.69 60 32.38 60 30 C59.67 30 59.34 30 59 30 Z M219 30 C219 31.65 219 33.3 219 35 C219.33 35 219.66 35 220 35 C220 33.35 220 31.7 220 30 C219.67 30 219.34 30 219 30 Z M161 32 C161.33 33.32 161.66 34.64 162 36 C161.01 36.33 160.02 36.66 159 37 C159 38.98 159 40.96 159 43 C160.32 43.33 161.64 43.66 163 44 C163 40.37 163 36.74 163 33 C162.34 32.67 161.68 32.34 161 32 Z M246 32 C246.33 33.65 246.66 35.3 247 37 C247.33 37 247.66 37 248 37 C248 35.35 248 33.7 248 32 C247.34 32 246.68 32 246 32 Z M245 33 C246 37 246 37 246 37 Z M217 34 C217.66 35.32 218.32 36.64 219 38 C219 37.01 219 36.02 219 35 C218.34 34.67 217.68 34.34 217 34 Z M243 35 C244 37 244 37 244 37 Z M83 37 C83 38.98 83 40.96 83 43 C83.33 43 83.66 43 84 43 C84 41.02 84 39.04 84 37 C83.67 37 83.34 37 83 37 Z M85 37 C85.66 37.66 86.32 38.32 87 39 C87.33 38.34 87.66 37.68 88 37 C87.01 37 86.02 37 85 37 Z M4 39 C5 41 5 41 5 41 Z M164 39 C165 41 165 41 165 41 Z M245 39 C246 41 246 41 246 41 Z M247 39 C248 41 248 41 248 41 Z M61 40 C61 43.3 61 46.6 61 50 C61.33 50 61.66 50 62 50 C62 46.7 62 43.4 62 40 C61.67 40 61.34 40 61 40 Z M86 41 C87 44 87 44 87 44 Z M192 41 C193 43 193 43 193 43 Z M28 42 C28 43.65 28 45.3 28 47 C28.33 47 28.66 47 29 47 C29 45.35 29 43.7 29 42 C28.67 42 28.34 42 28 42 Z M189 42 C189.33 42.99 189.66 43.98 190 45 C190 44.01 190 43.02 190 42 C189.67 42 189.34 42 189 42 Z M245 43 C245 44.65 245 46.3 245 48 C245.66 46.68 246.32 45.36 247 44 C246.34 43.67 245.68 43.34 245 43 Z M268 43 C269 46 269 46 269 46 Z M26 44 C27 47 27 47 27 47 Z M109 44 C110 46 110 46 110 46 Z M159 44 C160 46 160 46 160 46 Z M188 44 C188 44.99 188 45.98 188 47 C188.99 46.67 189.98 46.34 191 46 C190.34 46 189.68 46 189 46 C188.67 45.34 188.34 44.68 188 44 Z M221 44 C222 47 222 47 222 47 Z M30 45 C31 47 31 47 31 47 Z M83 45 C83 45.66 83 46.32 83 47 C83.66 47 84.32 47 85 47 C85 46.34 85 45.68 85 45 C84.34 45 83.68 45 83 45 Z M192 45 C193 47 193 47 193 47 Z M222 47 C223 50 223 50 223 50 Z M85 48 C86 50 86 50 86 50 Z M160 48 C161 51 161 51 161 51 Z M246 48 C247 50 247 50 247 50 Z M105 51 C109 52 109 52 109 52 Z " fill="#F7FAFA" transform="translate(11,13)"/>
<path d="M0 0 C3.06273831 -0.05410136 6.12451452 -0.09372225 9.1875 -0.125 C10.05181641 -0.14175781 10.91613281 -0.15851562 11.80664062 -0.17578125 C16.28853887 -0.2101253 19.97630843 -0.2345161 24 2 C24.99 2.99 24.99 2.99 26 4 C25.71395102 5.67542976 25.38218767 7.34385343 25 9 C25.33 9.33 25.66 9.66 26 10 C26 10.99 26 11.98 26 13 C25.34 13.66 24.68 14.32 24 15 C24 15.66 24 16.32 24 17 C24.66 17.33 25.32 17.66 26 18 C24.74458443 20.51083114 23.49936512 20.87125446 21 22 C21.66 22.33 22.32 22.66 23 23 C23.1875 26.375 23.1875 26.375 23 30 C22.01 30.66 21.02 31.32 20 32 C20.99 32 21.98 32 23 32 C22.979375 32.928125 22.95875 33.85625 22.9375 34.8125 C22.84230396 38.02286011 22.84230396 38.02286011 24 41 C23.67 41.99 23.34 42.98 23 44 C24.32 44.33 25.64 44.66 27 45 C26.195625 44.979375 25.39125 44.95875 24.5625 44.9375 C22.06645115 44.70366379 22.06645115 44.70366379 21 46 C23.31 46 25.62 46 28 46 C28 47.32 28 48.64 28 50 C27.01 50.99 27.01 50.99 26 52 C26 52.33 26 52.66 26 53 C17.42 53 8.84 53 0 53 C-0.495 51.02 -0.495 51.02 -1 49 C-1.33 49 -1.66 49 -2 49 C-2.99 49.99 -2.99 49.99 -4 51 C-4 49.35 -4 47.7 -4 46 C-4.103125 47.11375 -4.20625 48.2275 -4.3125 49.375 C-4.539375 50.57125 -4.76625 51.7675 -5 53 C-8.11216739 55.07477826 -8.84060508 55.25522588 -12.37890625 55.265625 C-13.63670898 55.26949219 -13.63670898 55.26949219 -14.91992188 55.2734375 C-15.79197266 55.26570313 -16.66402344 55.25796875 -17.5625 55.25 C-18.87637695 55.26160156 -18.87637695 55.26160156 -20.21679688 55.2734375 C-21.05404297 55.27085938 -21.89128906 55.26828125 -22.75390625 55.265625 C-23.52033447 55.26336914 -24.2867627 55.26111328 -25.07641602 55.25878906 C-27 55 -27 55 -29 53 C-31.6215642 52.72172748 -31.6215642 52.72172748 -34.6640625 52.8046875 C-36.34628906 52.81435547 -36.34628906 52.81435547 -38.0625 52.82421875 C-39.238125 52.84097656 -40.41375 52.85773438 -41.625 52.875 C-42.80835938 52.88402344 -43.99171875 52.89304688 -45.2109375 52.90234375 C-48.14082523 52.92597188 -51.0703134 52.95891486 -54 53 C-54.19551338 51.39679026 -54.38111983 49.79237014 -54.5625 48.1875 C-54.66691406 47.29417969 -54.77132812 46.40085938 -54.87890625 45.48046875 C-55 43 -55 43 -54 40 C-54.99 40.99 -55.98 41.98 -57 43 C-56.34 43.99 -55.68 44.98 -55 46 C-55.66 46 -56.32 46 -57 46 C-57.33 46.99 -57.66 47.98 -58 49 C-58.66 49 -59.32 49 -60 49 C-60 49.66 -60 50.32 -60 51 C-59.01 51.33 -58.02 51.66 -57 52 C-61.64354967 53.2871105 -66.27078074 53.47073847 -71.0625 53.75 C-72.42858398 53.85248047 -72.42858398 53.85248047 -73.82226562 53.95703125 C-74.69689453 54.00730469 -75.57152344 54.05757812 -76.47265625 54.109375 C-77.26937744 54.16061523 -78.06609863 54.21185547 -78.88696289 54.26464844 C-81.55225032 53.93083312 -82.32500745 53.03645345 -84 51 C-84.495 50.505 -84.495 50.505 -85 50 C-85.45375 50.45375 -85.9075 50.9075 -86.375 51.375 C-90 55 -90 55 -91.87939453 55.22705078 C-92.62302246 55.21657715 -93.36665039 55.20610352 -94.1328125 55.1953125 C-94.93847656 55.18886719 -95.74414062 55.18242188 -96.57421875 55.17578125 C-97.83685547 55.15064453 -97.83685547 55.15064453 -99.125 55.125 C-100.39923828 55.11146484 -100.39923828 55.11146484 -101.69921875 55.09765625 C-103.79959884 55.07405647 -105.89983444 55.03818483 -108 55 C-108.33 53.68 -108.66 52.36 -109 51 C-107.83082031 50.93941406 -106.66164062 50.87882812 -105.45703125 50.81640625 C-103.90884386 50.73195966 -102.36066732 50.64731375 -100.8125 50.5625 C-100.04357422 50.52318359 -99.27464844 50.48386719 -98.48242188 50.44335938 C-94.56748925 50.22492966 -90.82879312 49.91307892 -87 49 C-87.66 48.34 -88.32 47.68 -89 47 C-88.625 43.875 -88.625 43.875 -88 41 C-87.01 41 -86.02 41 -85 41 C-85 40.34 -85 39.68 -85 39 C-84.34 39 -83.68 39 -83 39 C-83.62759865 41.92879371 -84.58622659 44.36095629 -86 47 C-85.030625 47.268125 -84.06125 47.53625 -83.0625 47.8125 C-82.051875 48.204375 -81.04125 48.59625 -80 49 C-79.67 49.99 -79.34 50.98 -79 52 C-73.72 52 -68.44 52 -63 52 C-63 51.34 -63 50.68 -63 50 C-63.66 49.34 -64.32 48.68 -65 48 C-64.01 47.67 -63.02 47.34 -62 47 C-62 45.68 -62 44.36 -62 43 C-61.01 43 -60.02 43 -59 43 C-59 41.68 -59 40.36 -59 39 C-58.01 39 -57.02 39 -56 39 C-55.67 38.01 -55.34 37.02 -55 36 C-55.66 36 -56.32 36 -57 36 C-57.99 36 -58.98 36 -60 36 C-59.505 35.01 -59.505 35.01 -59 34 C-58.9310528 32.62657169 -58.91532292 31.24997898 -58.9375 29.875 C-58.958125 28.59625 -58.97875 27.3175 -59 26 C-58.01 26.33 -57.02 26.66 -56 27 C-55.34 24.69 -54.68 22.38 -54 20 C-54.99 20.99 -55.98 21.98 -57 23 C-57.495 21.515 -57.495 21.515 -58 20 C-58.99 20 -59.98 20 -61 20 C-61 19.01 -61 18.02 -61 17 C-59.68 17 -58.36 17 -57 17 C-57 16.34 -57 15.68 -57 15 C-56.34 14.67 -55.68 14.34 -55 14 C-55.66 14 -56.32 14 -57 14 C-57 13.01 -57 12.02 -57 11 C-57.66 10.34 -58.32 9.68 -59 9 C-58.01 9 -57.02 9 -56 9 C-55.67 6.69 -55.34 4.38 -55 2 C-53.68 2 -52.36 2 -51 2 C-49.41106178 1.93630695 -47.82250239 1.86269243 -46.234375 1.78125 C-45.34492188 1.73613281 -44.45546875 1.69101563 -43.5390625 1.64453125 C-42.61867188 1.59683594 -41.69828125 1.54914062 -40.75 1.5 C-39.34621094 1.42845703 -39.34621094 1.42845703 -37.9140625 1.35546875 C-35.60932734 1.23788022 -33.30464404 1.11935898 -31 1 C-31 1.66 -31 2.32 -31 3 C-30.34 2.67 -29.68 2.34 -29 2 C-27.51411977 1.90460127 -26.02409435 1.86926516 -24.53515625 1.8671875 C-23.65279297 1.86589844 -22.77042969 1.86460938 -21.86132812 1.86328125 C-20.4759082 1.86908203 -20.4759082 1.86908203 -19.0625 1.875 C-18.14275391 1.87113281 -17.22300781 1.86726562 -16.27539062 1.86328125 C-14.94991211 1.86521484 -14.94991211 1.86521484 -13.59765625 1.8671875 C-12.38348022 1.86887939 -12.38348022 1.86887939 -11.14477539 1.87060547 C-9 2 -9 2 -6 3 C-4.8125 6.0625 -4.8125 6.0625 -4 9 C-3.01 9 -2.02 9 -1 9 C-1 8.01 -1 7.02 -1 6 C-0.68197057 4.33034549 -0.35015049 2.66321482 0 1 C0 0.67 0 0.34 0 0 Z M18 2 C22 3 22 3 22 3 Z M-54 5 C-54 7.31 -54 9.62 -54 12 C-51.63019987 9.04622502 -51.63019987 9.04622502 -52 5 C-52.66 5 -53.32 5 -54 5 Z M-9 5 C-9.33 5.66 -9.66 6.32 -10 7 C-8.68 6.67 -7.36 6.34 -6 6 C-6.99 5.67 -7.98 5.34 -9 5 Z M-52 10 C-51 12 -51 12 -51 12 Z M-27 12 C-26 14 -26 14 -26 14 Z M-54 17 C-53.01 17.495 -53.01 17.495 -52 18 C-51.67 18.66 -51.34 19.32 -51 20 C-51 19.01 -51 18.02 -51 17 C-51.99 17 -52.98 17 -54 17 Z M-29 23 C-28 25 -28 25 -28 25 Z M-27 23 C-27.33 23.99 -27.66 24.98 -28 26 C-27.34 26 -26.68 26 -26 26 C-26.33 25.01 -26.66 24.02 -27 23 Z M-31 27 C-30.67 27.66 -30.34 28.32 -30 29 C-29.67 28.34 -29.34 27.68 -29 27 C-29.66 27 -30.32 27 -31 27 Z M-53 28 C-53 32.95 -53 37.9 -53 43 C-52.67 43 -52.34 43 -52 43 C-52 38.05 -52 33.1 -52 28 C-52.33 28 -52.66 28 -53 28 Z M-55 30 C-55 31.65 -55 33.3 -55 35 C-54.67 35 -54.34 35 -54 35 C-54 33.35 -54 31.7 -54 30 C-54.33 30 -54.66 30 -55 30 Z M-28 32 C-27.67 33.65 -27.34 35.3 -27 37 C-26.67 37 -26.34 37 -26 37 C-26 35.35 -26 33.7 -26 32 C-26.66 32 -27.32 32 -28 32 Z M-29 33 C-28 37 -28 37 -28 37 Z M-31 35 C-30 37 -30 37 -30 37 Z M-29 39 C-28 41 -28 41 -28 41 Z M-27 39 C-26 41 -26 41 -26 41 Z M-29 43 C-29 44.65 -29 46.3 -29 48 C-28.34 46.68 -27.68 45.36 -27 44 C-27.66 43.67 -28.32 43.34 -29 43 Z M-6 43 C-5 46 -5 46 -5 46 Z M-53 44 C-52 47 -52 47 -52 47 Z M-52 47 C-51 50 -51 50 -51 50 Z M-28 48 C-27 50 -27 50 -27 50 Z " fill="#F0F1F1" transform="translate(285,13)"/>
<path d="M0 0 C0.33 0.66 0.66 1.32 1 2 C1.5676709 1.84370117 2.1353418 1.68740234 2.72021484 1.52636719 C6.64133602 0.62104086 10.61715052 0.49525646 14.625 0.25 C15.49640625 0.18167969 16.3678125 0.11335937 17.265625 0.04296875 C18.09835938 -0.00730469 18.93109375 -0.05757812 19.7890625 -0.109375 C20.92915771 -0.18623535 20.92915771 -0.18623535 22.09228516 -0.26464844 C23.036604 -0.13364746 23.036604 -0.13364746 24 0 C27.01840125 4.52760188 28.24339186 6.52368308 28 12 C28.33 11.34 28.66 10.68 29 10 C31.97 10 34.94 10 38 10 C38.33 9.34 38.66 8.68 39 8 C39.95577057 6.63461347 40.96352976 5.30518475 42 4 C42.51433594 3.29101562 43.02867187 2.58203125 43.55859375 1.8515625 C47.2200147 -0.92525915 50.33307942 -0.21146931 54.75 0.25 C55.54277344 0.31574219 56.33554688 0.38148437 57.15234375 0.44921875 C59.10326366 0.61375416 61.05195497 0.80434482 63 1 C62.34 4.96 61.68 8.92 61 13 C61.99 12.67 62.98 12.34 64 12 C64 12.66 64 13.32 64 14 C63.01 14 62.02 14 61 14 C61 14.66 61 15.32 61 16 C59.68 16 58.36 16 57 16 C57 16.99 57 17.98 57 19 C57.99 19 58.98 19 60 19 C60.495 19.99 60.495 19.99 61 21 C62.485 21.495 62.485 21.495 64 22 C64 22.66 64 23.32 64 24 C62.68 24.66 61.36 25.32 60 26 C59.979375 27.299375 59.95875 28.59875 59.9375 29.9375 C59.92589844 30.66839844 59.91429687 31.39929688 59.90234375 32.15234375 C59.79438816 34.01732141 59.79438816 34.01732141 61 35 C61.33 35.99 61.66 36.98 62 38 C61.01 38 60.02 38 59 38 C58.67 39.98 58.34 41.96 58 44 C57.34 44 56.68 44 56 44 C56.33 44.99 56.66 45.98 57 47 C56.0625 49.1875 56.0625 49.1875 55 51 C52.39521117 51.0809313 49.79293347 51.14045434 47.1875 51.1875 C46.44951172 51.21263672 45.71152344 51.23777344 44.95117188 51.26367188 C39.45849378 51.33823312 39.45849378 51.33823312 37.09375 49.59375 C36.7328125 49.0678125 36.371875 48.541875 36 48 C35.443125 47.443125 34.88625 46.88625 34.3125 46.3125 C33.879375 45.879375 33.44625 45.44625 33 45 C33.66 42.69 34.32 40.38 35 38 C34.34 38 33.68 38 33 38 C33 38.66 33 39.32 33 40 C31.68 40.66 30.36 41.32 29 42 C29 43.32 29 44.64 29 46 C29.66 46 30.32 46 31 46 C31 46.66 31 47.32 31 48 C26.37183267 50.35582065 22.24465865 50.23521469 17.1875 50.125 C16.00510742 50.11146484 16.00510742 50.11146484 14.79882812 50.09765625 C12.86575334 50.07422504 10.9328362 50.03835838 9 50 C9.33 49.34 9.66 48.68 10 48 C9.01 47.34 8.02 46.68 7 46 C7.99 45.34 8.98 44.68 10 44 C10.33 43.01 10.66 42.02 11 41 C10.34 40.67 9.68 40.34 9 40 C9.33 39.34 9.66 38.68 10 38 C9.34 37.67 8.68 37.34 8 37 C8 34.03 8 31.06 8 28 C7.34 27.67 6.68 27.34 6 27 C5.67 26.34 5.34 25.68 5 25 C3.35 25.33 1.7 25.66 0 26 C0.33 26.33 0.66 26.66 1 27 C1.15714654 28.63256758 1.25085414 30.27135338 1.31640625 31.91015625 C1.35830078 32.89951172 1.40019531 33.88886719 1.44335938 34.90820312 C1.48267578 35.94912109 1.52199219 36.99003906 1.5625 38.0625 C1.60568359 39.10728516 1.64886719 40.15207031 1.69335938 41.22851562 C1.79981225 43.81886884 1.9018276 46.40932186 2 49 C-0.34852528 50.17426264 -1.73774065 50.11508173 -4.3515625 50.09765625 C-5.20234375 50.09443359 -6.053125 50.09121094 -6.9296875 50.08789062 C-7.81914062 50.07951172 -8.70859375 50.07113281 -9.625 50.0625 C-10.97078125 50.05573242 -10.97078125 50.05573242 -12.34375 50.04882812 C-14.56256648 50.03702591 -16.78125018 50.02056155 -19 50 C-18.01 49.505 -18.01 49.505 -17 49 C-17 48.34 -17 47.68 -17 47 C-17.66 47 -18.32 47 -19 47 C-18.99476318 46.40461426 -18.98952637 45.80922852 -18.98413086 45.19580078 C-18.96338001 42.50554453 -18.95034593 39.81530511 -18.9375 37.125 C-18.92912109 36.18785156 -18.92074219 35.25070313 -18.91210938 34.28515625 C-18.90888672 33.38925781 -18.90566406 32.49335937 -18.90234375 31.5703125 C-18.89710693 30.74289551 -18.89187012 29.91547852 -18.88647461 29.06298828 C-18.86647862 26.93588243 -18.86647862 26.93588243 -20 25 C-19.34 24.67 -18.68 24.34 -18 24 C-18 23.34 -18 22.68 -18 22 C-18.66 21.67 -19.32 21.34 -20 21 C-20 20.34 -20 19.68 -20 19 C-18.68 18.34 -17.36 17.68 -16 17 C-17.32 16.34 -18.64 15.68 -20 15 C-20 14.34 -20 13.68 -20 13 C-19.01 13 -18.02 13 -17 13 C-17.08378906 12.30132812 -17.16757813 11.60265625 -17.25390625 10.8828125 C-17.35574219 9.97273438 -17.45757812 9.06265625 -17.5625 8.125 C-17.66691406 7.22007813 -17.77132812 6.31515625 -17.87890625 5.3828125 C-18 3 -18 3 -17 1 C-8.585 0.505 -8.585 0.505 0 0 Z M3 5 C4 8 4 8 4 8 Z M25 17 C29 18 29 18 29 18 Z M4 18 C3.67 18.99 3.34 19.98 3 21 C3.99 20.67 4.98 20.34 6 20 C5.34 19.34 4.68 18.68 4 18 Z M36 40 C37 42 37 42 37 42 Z M36 44 C37 46 37 46 37 46 Z " fill="#F6F9F9" transform="translate(167,14)"/>
<path d="M0 0 C3.58331625 -0.02907084 7.16660208 -0.04682263 10.75 -0.0625 C11.76578125 -0.07087891 12.7815625 -0.07925781 13.828125 -0.08789062 C14.8078125 -0.09111328 15.7875 -0.09433594 16.796875 -0.09765625 C17.69760742 -0.10289307 18.59833984 -0.10812988 19.52636719 -0.11352539 C22 0 22 0 26 1 C26 4.96 26 8.92 26 13 C25.01 13.33 24.02 13.66 23 14 C25.97 14.99 28.94 15.98 32 17 C32 17.33 32 17.66 32 18 C28.92382812 18.29296875 28.92382812 18.29296875 25.84765625 18.5859375 C25.23792969 18.72257812 24.62820312 18.85921875 24 19 C23.67 19.66 23.34 20.32 23 21 C24.485 21.495 24.485 21.495 26 22 C25.505 22.495 25.505 22.495 25 23 C25.99 23.99 25.99 23.99 27 25 C25.515 25.495 25.515 25.495 24 26 C24.33 26.33 24.66 26.66 25 27 C25.10011296 29.98866642 25.13873975 32.94910453 25.125 35.9375 C25.12886719 36.77474609 25.13273437 37.61199219 25.13671875 38.47460938 C25.13542969 39.27576172 25.13414062 40.07691406 25.1328125 40.90234375 C25.13168457 41.63960693 25.13055664 42.37687012 25.12939453 43.13647461 C25 45 25 45 24 47 C24.66 47 25.32 47 26 47 C26 47.66 26 48.32 26 49 C32.27 49 38.54 49 45 49 C44.505 45.04 44.505 45.04 44 41 C43.76042334 37.32649124 43.56391823 33.65318361 43.37890625 29.9765625 C43.2940942 26.88599112 43.2940942 26.88599112 41 25 C43.31 24.67 45.62 24.34 48 24 C48 25.32 48 26.64 48 28 C48.99 28 49.98 28 51 28 C51.84454356 31.37817425 52.10844919 33.67465243 51 37 C52.98 37.495 52.98 37.495 55 38 C54.34 38 53.68 38 53 38 C53.495 40.97 53.495 40.97 54 44 C53.01 44.66 52.02 45.32 51 46 C52.32 46.66 53.64 47.32 55 48 C53.515 48.495 53.515 48.495 52 49 C51.01 49.99 51.01 49.99 50 51 C48.03571633 52.96428367 45.01702837 52.12023917 42.40252686 52.12442017 C41.4523468 52.12082489 40.50216675 52.11722961 39.52319336 52.11352539 C38.03067802 52.11374443 38.03067802 52.11374443 36.50801086 52.1139679 C33.20193338 52.11326831 29.89591146 52.10547379 26.58984375 52.09765625 C24.30440807 52.09579223 22.01897199 52.09436825 19.73353577 52.09336853 C13.70501613 52.08954207 7.67652041 52.0797107 1.64801025 52.06866455 C-4.49832841 52.05845317 -10.64467093 52.0538715 -16.79101562 52.04882812 C-28.86068762 52.03808854 -40.93034182 52.0210106 -53 52 C-53 51.34 -53 50.68 -53 50 C-45.41 49.67 -37.82 49.34 -30 49 C-30.66 47.02 -31.32 45.04 -32 43 C-32.1953125 40.26171875 -32.1953125 40.26171875 -32.125 37.6875 C-32.10695313 36.82511719 -32.08890625 35.96273437 -32.0703125 35.07421875 C-32.04710938 34.38972656 -32.02390625 33.70523438 -32 33 C-32 30.92831229 -32.51180646 29.0015935 -33 27 C-33.66 26.34 -34.32 25.68 -35 25 C-34.360625 24.87625 -33.72125 24.7525 -33.0625 24.625 C-32.381875 24.41875 -31.70125 24.2125 -31 24 C-30.67 23.34 -30.34 22.68 -30 22 C-30.99 21.34 -31.98 20.68 -33 20 C-30.09907498 18.06604999 -29.10325263 17.69868059 -25.8125 17.375 C-24.554375 17.25125 -23.29625 17.1275 -22 17 C-24.56893838 15.71553081 -26.76576337 15.67022856 -29.625 15.4375 C-30.62789062 15.35371094 -31.63078125 15.26992188 -32.6640625 15.18359375 C-33.82035156 15.09271484 -33.82035156 15.09271484 -35 15 C-35 14.34 -35 13.68 -35 13 C-34.01 12.67 -33.02 12.34 -32 12 C-32 11.34 -32 10.68 -32 10 C-31.34 10 -30.68 10 -30 10 C-29.87882812 9.43410156 -29.75765625 8.86820313 -29.6328125 8.28515625 C-29.46523437 7.55167969 -29.29765625 6.81820313 -29.125 6.0625 C-28.96257812 5.33160156 -28.80015625 4.60070312 -28.6328125 3.84765625 C-28 2 -28 2 -26 1 C-24.1136088 0.915085 -22.22421485 0.892807 -20.3359375 0.90234375 C-19.21445313 0.90556641 -18.09296875 0.90878906 -16.9375 0.91210938 C-15.761875 0.92048828 -14.58625 0.92886719 -13.375 0.9375 C-12.19164062 0.94201172 -11.00828125 0.94652344 -9.7890625 0.95117188 C-6.85932493 0.96298533 -3.92968728 0.97945742 -1 1 C-0.505 1.99 -0.505 1.99 0 3 C0 2.01 0 1.02 0 0 Z M-27 6 C-26 8 -26 8 -26 8 Z M-5 6 C-4 8 -4 8 -4 8 Z M21 6 C20.87625 6.639375 20.7525 7.27875 20.625 7.9375 C20.41875 8.618125 20.2125 9.29875 20 10 C19.01 10.495 19.01 10.495 18 11 C18 12.32 18 13.64 18 15 C17.01 15.495 17.01 15.495 16 16 C17.65 16 19.3 16 21 16 C22.60355101 12.49223216 23.22036864 9.85645121 23 6 C22.34 6 21.68 6 21 6 Z M24 8 C25 11 25 11 25 11 Z M18 22 C17.01 23.485 17.01 23.485 16 25 C12.375 26.1875 12.375 26.1875 9 27 C9 27.33 9 27.66 9 28 C10.98 28 12.96 28 15 28 C15 28.99 15 29.98 15 31 C13.35 31.33 11.7 31.66 10 32 C10 32.33 10 32.66 10 33 C11.98 33 13.96 33 16 33 C16.18175781 33.61488281 16.36351562 34.22976562 16.55078125 34.86328125 C16.92783203 36.07564453 16.92783203 36.07564453 17.3125 37.3125 C17.55613281 38.11300781 17.79976562 38.91351563 18.05078125 39.73828125 C19.04182023 42.09964573 20.08074943 43.33879993 22 45 C23.50156874 41.99686252 23.09281204 39.20932478 23.0625 35.875 C23.05347656 34.59367187 23.04445313 33.31234375 23.03515625 31.9921875 C23.02355469 31.00476562 23.01195312 30.01734375 23 29 C22.34 29 21.68 29 21 29 C21 27.35 21 25.7 21 24 C21.66 24 22.32 24 23 24 C23 23.34 23 22.68 23 22 C20.58380177 21.74969023 20.58380177 21.74969023 18 22 Z M-27 23 C-26.67 23.66 -26.34 24.32 -26 25 C-24.02 25 -22.04 25 -20 25 C-21.83883881 22.71271266 -21.83883881 22.71271266 -24.625 22.875 C-25.800625 22.936875 -25.800625 22.936875 -27 23 Z M46 28 C46 29.98 46 31.96 46 34 C46.33 34 46.66 34 47 34 C47 32.02 47 30.04 47 28 C46.67 28 46.34 28 46 28 Z M48 31 C48.33 32.32 48.66 33.64 49 35 C48.01 35.33 47.02 35.66 46 36 C46 37.98 46 39.96 46 42 C47.32 42.33 48.64 42.66 50 43 C50 39.37 50 35.74 50 32 C49.34 31.67 48.68 31.34 48 31 Z M-30 36 C-30 37.98 -30 39.96 -30 42 C-29.67 42 -29.34 42 -29 42 C-29 40.02 -29 38.04 -29 36 C-29.33 36 -29.66 36 -30 36 Z M-28 36 C-27.34 36.66 -26.68 37.32 -26 38 C-25.67 37.34 -25.34 36.68 -25 36 C-25.99 36 -26.98 36 -28 36 Z M51 38 C52 40 52 40 52 40 Z M-27 40 C-26 43 -26 43 -26 43 Z M-4 43 C-3 45 -3 45 -3 45 Z M46 43 C47 45 47 45 47 45 Z M-30 44 C-30 44.66 -30 45.32 -30 46 C-29.34 46 -28.68 46 -28 46 C-28 45.34 -28 44.68 -28 44 C-28.66 44 -29.32 44 -30 44 Z M-28 47 C-27 49 -27 49 -27 49 Z M47 47 C48 50 48 50 48 50 Z M-8 50 C-4 51 -4 51 -4 51 Z " fill="#F6F6F6" transform="translate(124,14)"/>
<path d="M0 0 C0.99 0.33 1.98 0.66 3 1 C4.55643549 1.01553817 6.11400687 0.96798687 7.66796875 0.87890625 C8.56064453 0.83056641 9.45332031 0.78222656 10.37304688 0.73242188 C11.30181641 0.67634766 12.23058594 0.62027344 13.1875 0.5625 C14.12787109 0.51029297 15.06824219 0.45808594 16.03710938 0.40429688 C18.35841501 0.27468082 20.67928409 0.13971819 23 0 C23 0.66 23 1.32 23 2 C23.99 2.33 24.98 2.66 26 3 C26.495 5.475 26.495 5.475 27 8 C27.66 8 28.32 8 29 8 C29 9.32 29 10.64 29 12 C30.32 12.33 31.64 12.66 33 13 C31.375 15 31.375 15 29 17 C25.75 17.25 25.75 17.25 23 17 C22.505 18.485 22.505 18.485 22 20 C21.34 20 20.68 20 20 20 C20 20.66 20 21.32 20 22 C20.66 22 21.32 22 22 22 C22 22.66 22 23.32 22 24 C22.66 24.33 23.32 24.66 24 25 C22.515 25.495 22.515 25.495 21 26 C21.33 26.33 21.66 26.66 22 27 C22.24113773 29.14046947 22.41676089 31.28842647 22.5625 33.4375 C22.64628906 34.61183594 22.73007813 35.78617188 22.81640625 36.99609375 C23.0302434 41.65956361 23 46.33163011 23 51 C16.07 51 9.14 51 2 51 C-1.27272727 42.81818182 -1.27272727 42.81818182 0 39 C-0.99 39.99 -1.98 40.98 -3 42 C-2.34 42.99 -1.68 43.98 -1 45 C-1.66 45 -2.32 45 -3 45 C-3.33 45.99 -3.66 46.98 -4 48 C-4.66 48 -5.32 48 -6 48 C-6 48.66 -6 49.32 -6 50 C-5.01 50.33 -4.02 50.66 -3 51 C-7.64354967 52.2871105 -12.27078074 52.47073847 -17.0625 52.75 C-18.42858398 52.85248047 -18.42858398 52.85248047 -19.82226562 52.95703125 C-20.69689453 53.00730469 -21.57152344 53.05757812 -22.47265625 53.109375 C-23.26937744 53.16061523 -24.06609863 53.21185547 -24.88696289 53.26464844 C-27.55225032 52.93083312 -28.32500745 52.03645345 -30 50 C-30.495 49.505 -30.495 49.505 -31 49 C-31.45375 49.45375 -31.9075 49.9075 -32.375 50.375 C-36 54 -36 54 -37.87939453 54.22705078 C-38.62302246 54.21657715 -39.36665039 54.20610352 -40.1328125 54.1953125 C-40.93847656 54.18886719 -41.74414062 54.18242188 -42.57421875 54.17578125 C-43.83685547 54.15064453 -43.83685547 54.15064453 -45.125 54.125 C-46.39923828 54.11146484 -46.39923828 54.11146484 -47.69921875 54.09765625 C-49.79959884 54.07405647 -51.89983444 54.03818483 -54 54 C-54.33 52.68 -54.66 51.36 -55 50 C-53.83082031 49.93941406 -52.66164062 49.87882812 -51.45703125 49.81640625 C-49.90884386 49.73195966 -48.36066732 49.64731375 -46.8125 49.5625 C-46.04357422 49.52318359 -45.27464844 49.48386719 -44.48242188 49.44335938 C-40.56748925 49.22492966 -36.82879312 48.91307892 -33 48 C-33.66 47.34 -34.32 46.68 -35 46 C-34.625 42.875 -34.625 42.875 -34 40 C-33.01 40 -32.02 40 -31 40 C-31 39.34 -31 38.68 -31 38 C-30.34 38 -29.68 38 -29 38 C-29.62759865 40.92879371 -30.58622659 43.36095629 -32 46 C-31.030625 46.268125 -30.06125 46.53625 -29.0625 46.8125 C-28.051875 47.204375 -27.04125 47.59625 -26 48 C-25.67 48.99 -25.34 49.98 -25 51 C-19.72 51 -14.44 51 -9 51 C-9 50.34 -9 49.68 -9 49 C-9.66 48.34 -10.32 47.68 -11 47 C-10.01 46.67 -9.02 46.34 -8 46 C-8 44.68 -8 43.36 -8 42 C-7.01 42 -6.02 42 -5 42 C-5 40.68 -5 39.36 -5 38 C-4.01 38 -3.02 38 -2 38 C-1.67 37.01 -1.34 36.02 -1 35 C-1.66 35 -2.32 35 -3 35 C-3.99 35 -4.98 35 -6 35 C-5.505 34.01 -5.505 34.01 -5 33 C-4.9310528 31.62657169 -4.91532292 30.24997898 -4.9375 28.875 C-4.958125 27.59625 -4.97875 26.3175 -5 25 C-4.01 25.33 -3.02 25.66 -2 26 C-1.34 23.69 -0.68 21.38 0 19 C-0.99 19.99 -1.98 20.98 -3 22 C-3.495 20.515 -3.495 20.515 -4 19 C-4.99 19 -5.98 19 -7 19 C-7 18.01 -7 17.02 -7 16 C-5.68 16 -4.36 16 -3 16 C-3 15.34 -3 14.68 -3 14 C-2.34 13.67 -1.68 13.34 -1 13 C-1.66 13 -2.32 13 -3 13 C-3 12.01 -3 11.02 -3 10 C-3.66 9.34 -4.32 8.68 -5 8 C-4.01 8 -3.02 8 -2 8 C-1.855625 6.865625 -1.71125 5.73125 -1.5625 4.5625 C-1 1 -1 1 0 0 Z M0 4 C0 6.31 0 8.62 0 11 C2.36980013 8.04622502 2.36980013 8.04622502 2 4 C1.34 4 0.68 4 0 4 Z M2 9 C3 11 3 11 3 11 Z M27 11 C28 13 28 13 28 13 Z M0 16 C0.99 16.495 0.99 16.495 2 17 C2.33 17.66 2.66 18.32 3 19 C3 18.01 3 17.02 3 16 C2.01 16 1.02 16 0 16 Z M1 27 C1 31.95 1 36.9 1 42 C1.33 42 1.66 42 2 42 C2 37.05 2 32.1 2 27 C1.67 27 1.34 27 1 27 Z M-1 29 C-1 30.65 -1 32.3 -1 34 C-0.67 34 -0.34 34 0 34 C0 32.35 0 30.7 0 29 C-0.33 29 -0.66 29 -1 29 Z M1 43 C2 46 2 46 2 46 Z M2 46 C3 49 3 49 3 49 Z " fill="#EAF6F6" transform="translate(231,14)"/>
<path d="M0 0 C6.27 0 12.54 0 19 0 C20.28317892 3.84953676 20.06643637 6.94738135 20 11 C19.34 11 18.68 11 18 11 C18.33 11.99 18.66 12.98 19 14 C17.68 14 16.36 14 15 14 C15 14.66 15 15.32 15 16 C15.74765625 16.04898437 16.4953125 16.09796875 17.265625 16.1484375 C18.25046875 16.22320313 19.2353125 16.29796875 20.25 16.375 C21.71179688 16.47941406 21.71179688 16.47941406 23.203125 16.5859375 C25.89633189 16.98465249 27.66963279 17.63507063 30 19 C29.30132812 19.06058594 28.60265625 19.12117188 27.8828125 19.18359375 C26.97273438 19.26738281 26.06265625 19.35117187 25.125 19.4375 C24.22007813 19.51871094 23.31515625 19.59992187 22.3828125 19.68359375 C19.98889139 19.86989285 19.98889139 19.86989285 18 21 C18.66 21.66 19.32 22.32 20 23 C20 23.99 20 24.98 20 26 C19.01 26.33 18.02 26.66 17 27 C18.11854586 30.72614153 18.11854586 30.72614153 21 33 C19.515 33.495 19.515 33.495 18 34 C18.14166357 35.91697937 18.28849584 37.83357723 18.4375 39.75 C18.51871094 40.81734375 18.59992188 41.8846875 18.68359375 42.984375 C18.94090773 45.43679962 19.31812218 47.63921291 20 50 C17.54724859 51.2263757 15.9494219 51.11415314 13.2109375 51.09765625 C12.26992187 51.09443359 11.32890625 51.09121094 10.359375 51.08789062 C9.37453125 51.07951172 8.3896875 51.07113281 7.375 51.0625 C5.88613281 51.05573242 5.88613281 51.05573242 4.3671875 51.04882812 C1.9113984 51.03702145 -0.54427104 51.020554 -3 51 C-1.02 50.505 -1.02 50.505 1 50 C0.855625 48.824375 0.71125 47.64875 0.5625 46.4375 C0.47355469 45.7053125 0.38460937 44.973125 0.29296875 44.21875 C0.03754166 42.28431551 -0.2878293 40.35937297 -0.625 38.4375 C-1.02759121 34.74708053 -0.66836457 31.63887379 0 28 C-0.99 27.67 -1.98 27.34 -3 27 C-3 26.67 -3 26.34 -3 26 C-1.35 26 0.3 26 2 26 C1.73323796 24.01508358 1.73323796 24.01508358 1 22 C0.01 21.67 -0.98 21.34 -2 21 C-1.01 21 -0.02 21 1 21 C1 20.34 1 19.68 1 19 C2.98 19 4.96 19 7 19 C7 18.34 7 17.68 7 17 C3.7 16.67 0.4 16.34 -3 16 C-2.34 15.67 -1.68 15.34 -1 15 C-1.09539062 14.25234375 -1.19078125 13.5046875 -1.2890625 12.734375 C-1.39992188 11.74953125 -1.51078125 10.7646875 -1.625 9.75 C-1.74101563 8.77546875 -1.85703125 7.8009375 -1.9765625 6.796875 C-2 4 -2 4 0 0 Z M0 1 C0 1.33 0 1.66 0 2 C5.94 2 11.88 2 18 2 C18 1.67 18 1.34 18 1 C12.06 1 6.12 1 0 1 Z " fill="#F1F7F7" transform="translate(74,13)"/>
<path d="M0 0 C0.33 4.29 0.66 8.58 1 13 C-0.32 13 -1.64 13 -3 13 C-3 13.66 -3 14.32 -3 15 C0.3 15.33 3.6 15.66 7 16 C7 16.33 7 16.66 7 17 C5.02 17 3.04 17 1 17 C0.67 17.99 0.34 18.98 0 20 C-0.66 20 -1.32 20 -2 20 C-2 20.66 -2 21.32 -2 22 C-1.34 22 -0.68 22 0 22 C0 22.66 0 23.32 0 24 C0.66 24.33 1.32 24.66 2 25 C1.01 25.33 0.02 25.66 -1 26 C-0.67 26.33 -0.34 26.66 0 27 C0.15714654 28.63256758 0.25085414 30.27135338 0.31640625 31.91015625 C0.35830078 32.89951172 0.40019531 33.88886719 0.44335938 34.90820312 C0.48267578 35.94912109 0.52199219 36.99003906 0.5625 38.0625 C0.60568359 39.10728516 0.64886719 40.15207031 0.69335938 41.22851562 C0.79981225 43.81886884 0.9018276 46.40932186 1 49 C-1.34852528 50.17426264 -2.73774065 50.11508173 -5.3515625 50.09765625 C-6.20234375 50.09443359 -7.053125 50.09121094 -7.9296875 50.08789062 C-8.81914062 50.07951172 -9.70859375 50.07113281 -10.625 50.0625 C-11.97078125 50.05573242 -11.97078125 50.05573242 -13.34375 50.04882812 C-15.56256648 50.03702591 -17.78125018 50.02056155 -20 50 C-19.01 49.505 -19.01 49.505 -18 49 C-18 48.34 -18 47.68 -18 47 C-18.66 47 -19.32 47 -20 47 C-19.99476318 46.40461426 -19.98952637 45.80922852 -19.98413086 45.19580078 C-19.96338001 42.50554453 -19.95034593 39.81530511 -19.9375 37.125 C-19.92912109 36.18785156 -19.92074219 35.25070313 -19.91210938 34.28515625 C-19.90888672 33.38925781 -19.90566406 32.49335937 -19.90234375 31.5703125 C-19.89710693 30.74289551 -19.89187012 29.91547852 -19.88647461 29.06298828 C-19.86647862 26.93588243 -19.86647862 26.93588243 -21 25 C-20.34 24.67 -19.68 24.34 -19 24 C-19 23.34 -19 22.68 -19 22 C-19.66 21.67 -20.32 21.34 -21 21 C-21 20.34 -21 19.68 -21 19 C-19.68 18.34 -18.36 17.68 -17 17 C-18.32 16.34 -19.64 15.68 -21 15 C-21 14.34 -21 13.68 -21 13 C-20.01 13 -19.02 13 -18 13 C-18.08378906 12.30132812 -18.16757813 11.60265625 -18.25390625 10.8828125 C-18.35574219 9.97273438 -18.45757812 9.06265625 -18.5625 8.125 C-18.66691406 7.22007813 -18.77132812 6.31515625 -18.87890625 5.3828125 C-19 3 -19 3 -18 1 C-15.1875205 0.83298107 -12.37501801 0.66636797 -9.5625 0.5 C-8.76005859 0.45230469 -7.95761719 0.40460937 -7.13085938 0.35546875 C-1.11328125 0 -1.11328125 0 0 0 Z " fill="#F7FAFA" transform="translate(168,14)"/>
<path d="M0 0 C0.99 0.33 1.98 0.66 3 1 C3.02696365 2.79158489 3.04637917 4.58328473 3.0625 6.375 C3.07410156 7.37273438 3.08570313 8.37046875 3.09765625 9.3984375 C3 12 3 12 2 14 C6.95 14.495 6.95 14.495 12 15 C12 15.66 12 16.32 12 17 C10.02 17 8.04 17 6 17 C6.495 20.465 6.495 20.465 7 24 C5.68 24.33 4.36 24.66 3 25 C3.66 25.33 4.32 25.66 5 26 C4.979375 27.093125 4.95875 28.18625 4.9375 29.3125 C4.92954244 33.76873393 5.33131492 38.15142055 5.78125 42.58203125 C6 45 6 45 6 48 C4.35 47.67 2.7 47.34 1 47 C1 44.03 1 41.06 1 38 C1 39.33333333 1 40.66666667 1 42 C0.34 42 -0.32 42 -1 42 C-1.495 42.99 -1.495 42.99 -2 44 C-2.66666667 45.33333333 -3.33333333 46.66666667 -4 48 C-3.01 48.495 -3.01 48.495 -2 49 C-2.99 49 -3.98 49 -5 49 C-5.495 49.99 -5.495 49.99 -6 51 C-12.27 51.33 -18.54 51.66 -25 52 C-25.33 51.34 -25.66 50.68 -26 50 C-29.02934491 49.34227572 -29.02934491 49.34227572 -32 49 C-32.33 49.66 -32.66 50.32 -33 51 C-43.395 51.495 -43.395 51.495 -54 52 C-54.33 51.34 -54.66 50.68 -55 50 C-55.99 49.34 -56.98 48.68 -58 48 C-58 46.68 -58 45.36 -58 44 C-57.01 43.505 -57.01 43.505 -56 43 C-54.79686169 36.95292221 -54.79539318 31.02303412 -56 25 C-55.01 25.33 -54.02 25.66 -53 26 C-51.875 32.625 -51.875 32.625 -53 36 C-51.68 36.33 -50.36 36.66 -49 37 C-49.99 39.64 -50.98 42.28 -52 45 C-51.01 45.33 -50.02 45.66 -49 46 C-49 46.66 -49 47.32 -49 48 C-47.10424749 48.02721176 -45.20838021 48.04649136 -43.3125 48.0625 C-42.25675781 48.07410156 -41.20101562 48.08570313 -40.11328125 48.09765625 C-37.27589738 48.00865425 -34.7561081 47.64939838 -32 47 C-33.12534105 45.64381501 -33.12534105 45.64381501 -36.0625 45.9375 C-37.031875 45.958125 -38.00125 45.97875 -39 46 C-39 45.67 -39 45.34 -39 45 C-37.35 45 -35.7 45 -34 45 C-33.67 43.02 -33.34 41.04 -33 39 C-32.01 39 -31.02 39 -30 39 C-30 38.34 -30 37.68 -30 37 C-29.01 37 -28.02 37 -27 37 C-27 37.66 -27 38.32 -27 39 C-26.34 39 -25.68 39 -25 39 C-23.26265853 42.80043446 -23 44.59714577 -23 49 C-18.05 48.67 -13.1 48.34 -8 48 C-8.66 47.34 -9.32 46.68 -10 46 C-8.68 46 -7.36 46 -6 46 C-5.855625 45.2575 -5.71125 44.515 -5.5625 43.75 C-5.09812508 41.47972261 -4.58136431 39.24240521 -4 37 C-3.01 37 -2.02 37 -1 37 C-0.505 36.01 -0.505 36.01 0 35 C0.33 35 0.66 35 1 35 C1 33.02 1 31.04 1 29 C0.01 30.98 -0.98 32.96 -2 35 C-2.99 34.34 -3.98 33.68 -5 33 C-4.67 32.67 -4.34 32.34 -4 32 C-3.92851801 30.64756083 -3.91600546 29.29165633 -3.9375 27.9375 C-3.958125 26.638125 -3.97875 25.33875 -4 24 C-4.66 24 -5.32 24 -6 24 C-6 23.34 -6 22.68 -6 22 C-7.32 21.67 -8.64 21.34 -10 21 C-7.69 21 -5.38 21 -3 21 C-3 20.01 -3 19.02 -3 18 C-3.99 17.67 -4.98 17.34 -6 17 C-5.67 16.34 -5.34 15.68 -5 15 C-4.01 15 -3.02 15 -2 15 C-1.83318891 12.08347826 -1.83318891 12.08347826 -2 9 C-2.66 8.34 -3.32 7.68 -4 7 C-3.01 7 -2.02 7 -1 7 C-0.67 4.69 -0.34 2.38 0 0 Z M1 3 C2 7 2 7 2 7 Z M-1 14 C-0.67 14.66 -0.34 15.32 0 16 C0.33 15.34 0.66 14.68 1 14 C0.34 14 -0.32 14 -1 14 Z M-1 17 C-0.67 18.32 -0.34 19.64 0 21 C0.33 19.68 0.66 18.36 1 17 C0.34 17 -0.32 17 -1 17 Z M-1 23 C-0.67 24.32 -0.34 25.64 0 27 C0.66 26.67 1.32 26.34 2 26 C1.67 25.01 1.34 24.02 1 23 C0.34 23 -0.32 23 -1 23 Z M-2 26 C-1 29 -1 29 -1 29 Z M3 27 C4 30 4 30 4 30 Z M-54 37 C-53 39 -53 39 -53 39 Z M-30 40 C-30 41.65 -30 43.3 -30 45 C-29.67 45 -29.34 45 -29 45 C-29 43.35 -29 41.7 -29 40 C-29.33 40 -29.66 40 -30 40 Z M-32 42 C-31 45 -31 45 -31 45 Z M-28 43 C-27 45 -27 45 -27 45 Z " fill="#776868" transform="translate(69,15)"/>
<path d="M0 0 C0 1.32 0 2.64 0 4 C0.99 4 1.98 4 3 4 C3.84454356 7.37817425 4.10844919 9.67465243 3 13 C4.32 13.33 5.64 13.66 7 14 C6.34 14 5.68 14 5 14 C5.495 16.97 5.495 16.97 6 20 C5.01 20.66 4.02 21.32 3 22 C4.32 22.66 5.64 23.32 7 24 C6.01 24.33 5.02 24.66 4 25 C3.34 25.66 2.68 26.32 2 27 C1 28 1 28 -1.05641174 28.12025452 C-1.96020065 28.11803391 -2.86398956 28.11581329 -3.79516602 28.11352539 C-4.81614883 28.11344986 -5.83713165 28.11337433 -6.88905334 28.11329651 C-7.9994548 28.10813522 -9.10985626 28.10297394 -10.25390625 28.09765625 C-11.38448959 28.0962413 -12.51507294 28.09482635 -13.67991638 28.09336853 C-17.30747065 28.08775019 -20.93496424 28.07519458 -24.5625 28.0625 C-27.01497307 28.05748736 -29.4674471 28.05292405 -31.91992188 28.04882812 C-37.94663545 28.0377748 -43.97331339 28.02101884 -50 28 C-50 27.34 -50 26.68 -50 26 C-26.735 26.495 -26.735 26.495 -3 27 C-3.33 23.7 -3.66 20.4 -4 17 C-4.2292546 13.30281468 -4.43210078 9.60568687 -4.62109375 5.90625 C-4.71554069 2.87795511 -4.71554069 2.87795511 -7 1 C-2.25 0 -2.25 0 0 0 Z M-2 4 C-2 5.98 -2 7.96 -2 10 C-1.67 10 -1.34 10 -1 10 C-1 8.02 -1 6.04 -1 4 C-1.33 4 -1.66 4 -2 4 Z M0 7 C0.33 8.32 0.66 9.64 1 11 C0.01 11.33 -0.98 11.66 -2 12 C-2 13.98 -2 15.96 -2 18 C-0.68 18.33 0.64 18.66 2 19 C2 15.37 2 11.74 2 8 C1.34 7.67 0.68 7.34 0 7 Z M3 14 C4 16 4 16 4 16 Z M-2 19 C-1 21 -1 21 -1 21 Z M-1 23 C0 26 0 26 0 26 Z " fill="#351717" transform="translate(172,38)"/>
<path d="M0 0 C0.66 0.99 1.32 1.98 2 3 C1.01 3.99 0.02 4.98 -1 6 C-0.34 6.99 0.32 7.98 1 9 C0.34 9 -0.32 9 -1 9 C-1.33 9.99 -1.66 10.98 -2 12 C-2.66 12 -3.32 12 -4 12 C-4 12.66 -4 13.32 -4 14 C-3.01 14.33 -2.02 14.66 -1 15 C-5.64354967 16.2871105 -10.27078074 16.47073847 -15.0625 16.75 C-16.42858398 16.85248047 -16.42858398 16.85248047 -17.82226562 16.95703125 C-19.13420898 17.03244141 -19.13420898 17.03244141 -20.47265625 17.109375 C-21.26937744 17.16061523 -22.06609863 17.21185547 -22.88696289 17.26464844 C-25.55225032 16.93083312 -26.32500745 16.03645345 -28 14 C-28.33 13.67 -28.66 13.34 -29 13 C-29.680625 13.680625 -29.680625 13.680625 -30.375 14.375 C-34 18 -34 18 -35.87939453 18.22705078 C-36.62302246 18.21657715 -37.36665039 18.20610352 -38.1328125 18.1953125 C-38.93847656 18.18886719 -39.74414062 18.18242188 -40.57421875 18.17578125 C-41.41597656 18.15902344 -42.25773438 18.14226562 -43.125 18.125 C-44.39923828 18.11146484 -44.39923828 18.11146484 -45.69921875 18.09765625 C-47.79959884 18.07405647 -49.89983444 18.03818483 -52 18 C-52.33 16.68 -52.66 15.36 -53 14 C-51.83082031 13.93941406 -50.66164062 13.87882812 -49.45703125 13.81640625 C-47.90884386 13.73195966 -46.36066732 13.64731375 -44.8125 13.5625 C-44.04357422 13.52318359 -43.27464844 13.48386719 -42.48242188 13.44335938 C-38.56748925 13.22492966 -34.82879312 12.91307892 -31 12 C-31.66 11.34 -32.32 10.68 -33 10 C-32.625 6.875 -32.625 6.875 -32 4 C-31.01 4 -30.02 4 -29 4 C-29 3.34 -29 2.68 -29 2 C-28.34 2 -27.68 2 -27 2 C-27.62759865 4.92879371 -28.58622659 7.36095629 -30 10 C-29.030625 10.268125 -28.06125 10.53625 -27.0625 10.8125 C-26.051875 11.204375 -25.04125 11.59625 -24 12 C-23.67 12.99 -23.34 13.98 -23 15 C-17.72 15 -12.44 15 -7 15 C-7 14.34 -7 13.68 -7 13 C-7.66 12.34 -8.32 11.68 -9 11 C-8.01 10.67 -7.02 10.34 -6 10 C-6 8.68 -6 7.36 -6 6 C-5.01 6 -4.02 6 -3 6 C-3 4.68 -3 3.36 -3 2 C-2.01 2 -1.02 2 0 2 C0 1.34 0 0.68 0 0 Z " fill="#413535" transform="translate(229,50)"/>
<path d="M0 0 C0.433125 0.495 0.86625 0.99 1.3125 1.5 C2.99740483 3.33218192 2.99740483 3.33218192 6 3 C6 5.31 6 7.62 6 10 C6.639375 10.12375 7.27875 10.2475 7.9375 10.375 C8.618125 10.58125 9.29875 10.7875 10 11 C10.33 11.66 10.66 12.32 11 13 C8.69 13.33 6.38 13.66 4 14 C13.39146903 14.09908936 22.65741704 14.12998844 32 13 C30.80815125 14.97161865 30.80815125 14.97161865 29 17 C26.74104309 17.48101807 26.74104309 17.48101807 24.06958008 17.45410156 C23.06876907 17.45379944 22.06795807 17.45349731 21.03681946 17.45318604 C19.95861435 17.43254089 18.88040924 17.41189575 17.76953125 17.390625 C16.66397385 17.38496521 15.55841644 17.37930542 14.4193573 17.37347412 C10.88330036 17.35105795 7.34825141 17.30084996 3.8125 17.25 C1.41733233 17.22994187 -0.97785121 17.21168991 -3.37304688 17.1953125 C-9.24904267 17.151176 -15.12444933 17.08421128 -21 17 C-21 16.34 -21 15.68 -21 15 C-13.41 14.67 -5.82 14.34 2 14 C1.34 12.02 0.68 10.04 0 8 C-0.22663986 5.28938725 -0.0940868 2.72851708 0 0 Z M2 9 C2 9.66 2 10.32 2 11 C2.66 11 3.32 11 4 11 C4 10.34 4 9.68 4 9 C3.34 9 2.68 9 2 9 Z M24 15 C28 16 28 16 28 16 Z " fill="#484848" transform="translate(92,49)"/>
<path d="M0 0 C0.99 0.33 1.98 0.66 3 1 C3.02696365 2.79158489 3.04637917 4.58328473 3.0625 6.375 C3.07410156 7.37273438 3.08570312 8.37046875 3.09765625 9.3984375 C3 12 3 12 2 14 C5.3 14.33 8.6 14.66 12 15 C12 15.66 12 16.32 12 17 C10.02 17 8.04 17 6 17 C6 17.66 6 18.32 6 19 C4.68 19 3.36 19 2 19 C2 20.32 2 21.64 2 23 C1.34 23.33 0.68 23.66 0 24 C0.226875 24.70125 0.45375 25.4025 0.6875 26.125 C1.09532639 29.87700275 -0.13622707 31.79431057 -2 35 C-2.99 34.34 -3.98 33.68 -5 33 C-4.505 32.505 -4.505 32.505 -4 32 C-3.92851801 30.64756083 -3.91600546 29.29165633 -3.9375 27.9375 C-3.958125 26.638125 -3.97875 25.33875 -4 24 C-4.66 24 -5.32 24 -6 24 C-6 23.34 -6 22.68 -6 22 C-7.32 21.67 -8.64 21.34 -10 21 C-7.69 21 -5.38 21 -3 21 C-3 20.01 -3 19.02 -3 18 C-3.99 17.67 -4.98 17.34 -6 17 C-5.67 16.34 -5.34 15.68 -5 15 C-4.01 15 -3.02 15 -2 15 C-1.83318891 12.08347826 -1.83318891 12.08347826 -2 9 C-2.66 8.34 -3.32 7.68 -4 7 C-3.01 7 -2.02 7 -1 7 C-0.67 4.69 -0.34 2.38 0 0 Z M1 3 C2 7 2 7 2 7 Z M-1 14 C-0.67 14.66 -0.34 15.32 0 16 C0.33 15.34 0.66 14.68 1 14 C0.34 14 -0.32 14 -1 14 Z M-1 17 C-0.67 18.32 -0.34 19.64 0 21 C0.33 19.68 0.66 18.36 1 17 C0.34 17 -0.32 17 -1 17 Z M-2 26 C-1 29 -1 29 -1 29 Z " fill="#7C817C" transform="translate(69,15)"/>
<path d="M0 0 C0.33 1.32 0.66 2.64 1 4 C0.01 4.33 -0.98 4.66 -2 5 C-1.67 6.65 -1.34 8.3 -1 10 C-0.34 8.68 0.32 7.36 1 6 C2.3303125 6.9590625 2.3303125 6.9590625 3.6875 7.9375 C6.69211428 9.80829757 8.5510371 10.59423966 12 11 C12 11.33 12 11.66 12 12 C8.92382812 12.29296875 8.92382812 12.29296875 5.84765625 12.5859375 C5.23792969 12.72257812 4.62820312 12.85921875 4 13 C3.67 13.66 3.34 14.32 3 15 C3.99 15.33 4.98 15.66 6 16 C5.67 16.33 5.34 16.66 5 17 C5.66 17.66 6.32 18.32 7 19 C6.01 19.33 5.02 19.66 4 20 C4.33 20.33 4.66 20.66 5 21 C5.08631874 22.34267413 5.10706473 23.68974322 5.09765625 25.03515625 C5.09443359 25.84404297 5.09121094 26.65292969 5.08789062 27.48632812 C5.07951172 28.33646484 5.07113281 29.18660156 5.0625 30.0625 C5.05798828 30.91650391 5.05347656 31.77050781 5.04882812 32.65039062 C5.03700373 34.76695663 5.01906769 36.88348685 5 39 C4.34 39 3.68 39 3 39 C3 33.72 3 28.44 3 23 C2.34 23 1.68 23 1 23 C1 21.35 1 19.7 1 18 C1.66 18 2.32 18 3 18 C3 17.34 3 16.68 3 16 C1.35 16 -0.3 16 -2 16 C-2.33 17.32 -2.66 18.64 -3 20 C-4.32 19.67 -5.64 19.34 -7 19 C-6.34 19 -5.68 19 -5 19 C-5.33 17.68 -5.66 16.36 -6 15 C-4.68 15 -3.36 15 -2 15 C-1.67 14.01 -1.34 13.02 -1 12 C-2.98 12 -4.96 12 -7 12 C-6.67 10.68 -6.34 9.36 -6 8 C-5.34 8 -4.68 8 -4 8 C-4.33 7.01 -4.66 6.02 -5 5 C-5.66 5 -6.32 5 -7 5 C-7 4.34 -7 3.68 -7 3 C-5.68 3 -4.36 3 -3 3 C-3 2.34 -3 1.68 -3 1 C-2.01 0.67 -1.02 0.34 0 0 Z " fill="#636F6F" transform="translate(144,20)"/>
<path d="M0 0 C2.475 0.99 2.475 0.99 5 2 C5 3.32 5 4.64 5 6 C5.66 6 6.32 6 7 6 C7 6.66 7 7.32 7 8 C9.97 8 12.94 8 16 8 C16 8.33 16 8.66 16 9 C13.69 9.33 11.38 9.66 9 10 C9 10.66 9 11.32 9 12 C15.6 12 22.2 12 29 12 C29 11.34 29 10.68 29 10 C30.32 9.67 31.64 9.34 33 9 C33 9.66 33 10.32 33 11 C39.27 11 45.54 11 52 11 C52 11.66 52 12.32 52 13 C37.15 13 22.3 13 7 13 C7 11.68 7 10.36 7 9 C5.906875 9.020625 4.81375 9.04125 3.6875 9.0625 C0 9 0 9 -3 8 C-3 7.34 -3 6.68 -3 6 C-2.34 5.67 -1.68 5.34 -1 5 C-0.34444881 2.47266765 -0.34444881 2.47266765 0 0 Z M3 5 C4 7 4 7 4 7 Z " fill="#939796" transform="translate(117,52)"/>
<path d="M0 0 C2 3 2 3 2 5 C2.66 5 3.32 5 4 5 C4 5.99 4 6.98 4 8 C7.3 8 10.6 8 14 8 C14 8.99 14 9.98 14 11 C12.35 11 10.7 11 9 11 C9 10.67 9 10.34 9 10 C6.58354218 9.83312552 6.58354218 9.83312552 4 10 C3.34 10.66 2.68 11.32 2 12 C2 10.35 2 8.7 2 7 C1.896875 8.11375 1.79375 9.2275 1.6875 10.375 C1.460625 11.57125 1.23375 12.7675 1 14 C-2.15314785 16.10209857 -2.86103081 16.2434761 -6.44921875 16.1953125 C-7.72055664 16.18564453 -7.72055664 16.18564453 -9.01757812 16.17578125 C-9.89865234 16.15902344 -10.77972656 16.14226562 -11.6875 16.125 C-12.58017578 16.11597656 -13.47285156 16.10695313 -14.39257812 16.09765625 C-16.59532314 16.07409748 -18.79752588 16.04120329 -21 16 C-21 15.01 -21 14.02 -21 13 C-15.06 13 -9.12 13 -3 13 C-3 11.68 -3 10.36 -3 9 C-2.34 9 -1.68 9 -1 9 C-1 8.01 -1 7.02 -1 6 C-1.66 5.67 -2.32 5.34 -3 5 C-2.625 3.0625 -2.625 3.0625 -2 1 C-1.34 0.67 -0.68 0.34 0 0 Z M0 4 C1 7 1 7 1 7 Z " fill="#0D0C0C" transform="translate(279,52)"/>
<path d="M0 0 C0.99 0.33 1.98 0.66 3 1 C4.55643549 1.01553817 6.11400687 0.96798687 7.66796875 0.87890625 C8.56064453 0.83056641 9.45332031 0.78222656 10.37304688 0.73242188 C11.30181641 0.67634766 12.23058594 0.62027344 13.1875 0.5625 C14.12787109 0.51029297 15.06824219 0.45808594 16.03710938 0.40429688 C18.35841501 0.27468082 20.67928409 0.13971819 23 0 C23 0.66 23 1.32 23 2 C23.66 2 24.32 2 25 2 C25 2.66 25 3.32 25 4 C24.01 4 23.02 4 22 4 C22 3.34 22 2.68 22 2 C14.08 2.495 14.08 2.495 6 3 C5.0318352 6.8726592 4.92377142 10.03611362 5 14 C3.33388095 14.042721 1.66617115 14.04063832 0 14 C-0.33 13.67 -0.66 13.34 -1 13 C-1.66 13 -2.32 13 -3 13 C-3 12.01 -3 11.02 -3 10 C-3.66 9.34 -4.32 8.68 -5 8 C-4.01 8 -3.02 8 -2 8 C-1.855625 6.865625 -1.71125 5.73125 -1.5625 4.5625 C-1 1 -1 1 0 0 Z M0 4 C0 6.31 0 8.62 0 11 C2.36980013 8.04622502 2.36980013 8.04622502 2 4 C1.34 4 0.68 4 0 4 Z M2 9 C3 11 3 11 3 11 Z " fill="#7DBCBC" transform="translate(231,14)"/>
<path d="M0 0 C0.99 0.33 1.98 0.66 3 1 C4.125 7.625 4.125 7.625 3 11 C4.32 11.33 5.64 11.66 7 12 C6.01 14.64 5.02 17.28 4 20 C4.99 20.33 5.98 20.66 7 21 C7 21.66 7 22.32 7 23 C11.29 23 15.58 23 20 23 C20 23.66 20 24.32 20 25 C14.72 25 9.44 25 4 25 C3.67 24.01 3.34 23.02 3 22 C1.35 21.67 -0.3 21.34 -2 21 C-2 20.34 -2 19.68 -2 19 C-1.34 18.67 -0.68 18.34 0 18 C1.20313831 11.95292221 1.20460682 6.02303412 0 0 Z M2 12 C3 14 3 14 3 14 Z " fill="#62B4B4" transform="translate(13,40)"/>
<path d="M0 0 C0.66 0.33 1.32 0.66 2 1 C2 3.31 2 5.62 2 8 C3.65 8 5.3 8 7 8 C7 8.66 7 9.32 7 10 C5.68 10 4.36 10 3 10 C3.01160156 10.85464844 3.02320313 11.70929687 3.03515625 12.58984375 C3.04417969 13.69457031 3.05320312 14.79929687 3.0625 15.9375 C3.07410156 17.03964844 3.08570313 18.14179687 3.09765625 19.27734375 C3 22 3 22 2 23 C0.14630389 23.08737645 -1.71067541 23.10698153 -3.56640625 23.09765625 C-4.69111328 23.09443359 -5.81582031 23.09121094 -6.97460938 23.08789062 C-8.15861328 23.07951172 -9.34261719 23.07113281 -10.5625 23.0625 C-11.75037109 23.05798828 -12.93824219 23.05347656 -14.16210938 23.04882812 C-17.10812226 23.03699675 -20.05403681 23.02051287 -23 23 C-23 22.34 -23 21.68 -23 21 C-15.41 21.33 -7.82 21.66 0 22 C-0.495 17.05 -0.495 17.05 -1 12 C-1.08012709 9.98032599 -1.13081656 7.95875447 -1.125 5.9375 C-1.12886719 4.55884766 -1.12886719 4.55884766 -1.1328125 3.15234375 C-1 1 -1 1 0 0 Z M0 5 C1 7 1 7 1 7 Z " fill="#6B2525" transform="translate(254,43)"/>
<path d="M0 0 C5.94 0 11.88 0 18 0 C18.66 1.32 19.32 2.64 20 4 C20.66 4 21.32 4 22 4 C22 8.29 22 12.58 22 17 C23.65 17 25.3 17 27 17 C27 17.33 27 17.66 27 18 C23.04 18.33 19.08 18.66 15 19 C15 18.34 15 17.68 15 17 C16.32 16.67 17.64 16.34 19 16 C18.67 14.35 18.34 12.7 18 11 C17.34 11 16.68 11 16 11 C16 10.34 16 9.68 16 9 C16.66 8.67 17.32 8.34 18 8 C18.65213292 5.97536745 18.65213292 5.97536745 19 4 C18.34 4 17.68 4 17 4 C17 3.01 17 2.02 17 1 C11.39 1 5.78 1 0 1 C0 0.67 0 0.34 0 0 Z " fill="#946463" transform="translate(11,13)"/>
<path d="M0 0 C1.98 0.495 1.98 0.495 4 1 C4.33 2.32 4.66 3.64 5 5 C3.68 5.33 2.36 5.66 1 6 C1.66 6.33 2.32 6.66 3 7 C2.979375 8.093125 2.95875 9.18625 2.9375 10.3125 C2.92954244 14.76873393 3.33131492 19.15142055 3.78125 23.58203125 C4 26 4 26 4 29 C2.35 28.67 0.7 28.34 -1 28 C-1.02904864 24.08334892 -1.04681517 20.1667256 -1.0625 16.25 C-1.07087891 15.13882813 -1.07925781 14.02765625 -1.08789062 12.8828125 C-1.09111328 11.81289063 -1.09433594 10.74296875 -1.09765625 9.640625 C-1.10289307 8.65610352 -1.10812988 7.67158203 -1.11352539 6.65722656 C-1.01159103 4.27130486 -0.68303357 2.27835419 0 0 Z M1 8 C2 11 2 11 2 11 Z " fill="#52ABAB" transform="translate(71,34)"/>
<path d="M0 0 C1.65 0 3.3 0 5 0 C6.125 2.3125 6.125 2.3125 7 5 C6.01 6.485 6.01 6.485 5 8 C3.14463625 11.81380327 2.80343994 14.77395867 3 19 C1.35 18.01 -0.3 17.02 -2 16 C-1.7525 15.2575 -1.7525 15.2575 -1.5 14.5 C-0.86925591 11.77119784 -0.86925591 11.77119784 -1 8 C-1 4.9672996 -0.93951052 2.81853156 0 0 Z " fill="#5F9998" transform="translate(285,15)"/>
<path d="M0 0 C2.97 0 5.94 0 9 0 C9 0.33 9 0.66 9 1 C6.69 1.33 4.38 1.66 2 2 C1.67 2.99 1.34 3.98 1 5 C2.65 5.33 4.3 5.66 6 6 C5.67 6.99 5.34 7.98 5 9 C5.99 9 6.98 9 8 9 C8.33 10.32 8.66 11.64 9 13 C3.99109914 12.38487182 -1.00632136 11.7282448 -6 11 C-6 10.34 -6 9.68 -6 9 C-5.01 8.67 -4.02 8.34 -3 8 C-3 7.34 -3 6.68 -3 6 C-2.34 6 -1.68 6 -1 6 C-0.67 4.02 -0.34 2.04 0 0 Z " fill="#7B7D7D" transform="translate(95,18)"/>
<path d="M0 0 C0.66 0.33 1.32 0.66 2 1 C1.62875 2.03125 1.2575 3.0625 0.875 4.125 C-0.07536506 8.33375955 0.29730429 10.12163756 2 14 C0.02 14.66 -1.96 15.32 -4 16 C-4.33 14.68 -4.66 13.36 -5 12 C-8.96 12 -12.92 12 -17 12 C-17 10.02 -17 8.04 -17 6 C-16.67 7.32 -16.34 8.64 -16 10 C-13.03 10 -10.06 10 -7 10 C-7.33 9.01 -7.66 8.02 -8 7 C-7.01 7 -6.02 7 -5 7 C-4.731875 6.401875 -4.46375 5.80375 -4.1875 5.1875 C-3.01506533 3.02775192 -1.80630718 1.64209744 0 0 Z M-3 5 C-2 7 -2 7 -2 7 Z M-3 10 C-2 12 -2 12 -2 12 Z " fill="#6BA2A2" transform="translate(51,14)"/>
<path d="M0 0 C0.66 0.99 1.32 1.98 2 3 C1.01 3.99 0.02 4.98 -1 6 C-0.01 7.485 -0.01 7.485 1 9 C0.34 9 -0.32 9 -1 9 C-1.33 9.99 -1.66 10.98 -2 12 C-2.66 12 -3.32 12 -4 12 C-4 12.66 -4 13.32 -4 14 C-3.01 14.33 -2.02 14.66 -1 15 C-3.95508447 15.83371359 -6.70109613 16.17889534 -9.765625 16.31640625 C-10.65507812 16.35830078 -11.54453125 16.40019531 -12.4609375 16.44335938 C-13.38132813 16.48267578 -14.30171875 16.52199219 -15.25 16.5625 C-16.18585938 16.60568359 -17.12171875 16.64886719 -18.0859375 16.69335938 C-20.39048641 16.7991805 -22.69513839 16.90126557 -25 17 C-25 16.01 -25 15.02 -25 14 C-19.06 14.33 -13.12 14.66 -7 15 C-7 14.34 -7 13.68 -7 13 C-7.66 12.34 -8.32 11.68 -9 11 C-8.01 10.67 -7.02 10.34 -6 10 C-6 8.68 -6 7.36 -6 6 C-5.01 6 -4.02 6 -3 6 C-3 4.68 -3 3.36 -3 2 C-2.01 2 -1.02 2 0 2 C0 1.34 0 0.68 0 0 Z " fill="#1D1111" transform="translate(229,50)"/>
<path d="M0 0 C0.66 0.66 1.32 1.32 2 2 C2.53625 2.37125 3.0725 2.7425 3.625 3.125 C5.82005059 6.1182508 5.37672846 9.40659008 5 13 C4.67 13.99 4.34 14.98 4 16 C5.65 16 7.3 16 9 16 C9 16.33 9 16.66 9 17 C5.04 17.33 1.08 17.66 -3 18 C-3 17.34 -3 16.68 -3 16 C-1.68 15.67 -0.36 15.34 1 15 C0.67 13.35 0.34 11.7 0 10 C-0.66 10 -1.32 10 -2 10 C-2 8.68 -2 7.36 -2 6 C-1.34 6 -0.68 6 0 6 C-0.2784375 4.7934375 -0.2784375 4.7934375 -0.5625 3.5625 C-0.706875 2.716875 -0.85125 1.87125 -1 1 C-0.67 0.67 -0.34 0.34 0 0 Z " fill="#A47E7E" transform="translate(190,14)"/>
<path d="M0 0 C0.66 4.95 1.32 9.9 2 15 C-1.3 14.67 -4.6 14.34 -8 14 C-8 13.34 -8 12.68 -8 12 C-6.68 12 -5.36 12 -4 12 C-4.33 8.37 -4.66 4.74 -5 1 C-1 0 -1 0 0 0 Z M-3 4 C-2 7 -2 7 -2 7 Z " fill="#647A79" transform="translate(173,15)"/>
<path d="M0 0 C2.5132982 2.5132982 2 3.62447307 2 7 C1.34 7 0.68 7 0 7 C-0.33 7.66 -0.66 8.32 -1 9 C-1.66666667 10.33333333 -2.33333333 11.66666667 -3 13 C-2.34 13.33 -1.68 13.66 -1 14 C-1.99 14 -2.98 14 -4 14 C-4.33 14.66 -4.66 15.32 -5 16 C-10.94 16 -16.88 16 -23 16 C-23 15.67 -23 15.34 -23 15 C-21.92878906 14.93941406 -20.85757813 14.87882812 -19.75390625 14.81640625 C-18.35675609 14.73201463 -16.95962143 14.64736594 -15.5625 14.5625 C-14.50192383 14.50352539 -14.50192383 14.50352539 -13.41992188 14.44335938 C-9.91309581 14.52375562 -9.91309581 14.52375562 -7 13 C-7.66 12.34 -8.32 11.68 -9 11 C-7.68 11 -6.36 11 -5 11 C-4.855625 10.2575 -4.71125 9.515 -4.5625 8.75 C-4.09812508 6.47972261 -3.58136431 4.24240521 -3 2 C-2.01 2 -1.02 2 0 2 C0 1.34 0 0.68 0 0 Z " fill="#2A0C0B" transform="translate(68,50)"/>
<path d="M0 0 C0.66 0 1.32 0 2 0 C2 1.32 2 2.64 2 4 C1.34 4.66 0.68 5.32 0 6 C0 6.33 0 6.66 0 7 C-8.58 7 -17.16 7 -26 7 C-26.33 5.68 -26.66 4.36 -27 3 C-26.01 3.33 -25.02 3.66 -24 4 C-22.22686149 4.08209792 -20.45079225 4.10746294 -18.67578125 4.09765625 C-17.64775391 4.09443359 -16.61972656 4.09121094 -15.56054688 4.08789062 C-14.48869141 4.07951172 -13.41683594 4.07113281 -12.3125 4.0625 C-11.22904297 4.05798828 -10.14558594 4.05347656 -9.02929688 4.04882812 C-6.35280915 4.03703743 -3.67643223 4.02058063 -1 4 C-0.67 2.68 -0.34 1.36 0 0 Z " fill="#483B3B" transform="translate(311,59)"/>
<path d="M0 0 C0.33 0 0.66 0 1 0 C1 2.31 1 4.62 1 7 C2.65 7 4.3 7 6 7 C5.67 7.99 5.34 8.98 5 10 C2.03 9.505 2.03 9.505 -1 9 C-1.33 9.66 -1.66 10.32 -2 11 C-12.395 11.495 -12.395 11.495 -23 12 C-23.33 11.34 -23.66 10.68 -24 10 C-24.99 9.34 -25.98 8.68 -27 8 C-27 7.34 -27 6.68 -27 6 C-24.69 6 -22.38 6 -20 6 C-20.66 6.66 -21.32 7.32 -22 8 C-19.94077598 10.05922402 -15.78291876 9.41427579 -12.9375 9.5625 C-11.79958008 9.62727539 -11.79958008 9.62727539 -10.63867188 9.69335938 C-8.75934562 9.79973633 -6.87969756 9.90039934 -5 10 C-5 9.34 -5 8.68 -5 8 C-3.68 7.67 -2.36 7.34 -1 7 C-0.67 4.69 -0.34 2.38 0 0 Z " fill="#2B2323" transform="translate(38,55)"/>
<path d="M0 0 C0.66 0.33 1.32 0.66 2 1 C2 2.32 2 3.64 2 5 C1.01 5.495 1.01 5.495 0 6 C0.3403125 7.051875 0.3403125 7.051875 0.6875 8.125 C1.09532639 11.87700275 -0.13622707 13.79431057 -2 17 C-2.99 16.34 -3.98 15.68 -5 15 C-4.67 14.67 -4.34 14.34 -4 14 C-3.92851801 12.64756083 -3.91600546 11.29165633 -3.9375 9.9375 C-3.958125 8.638125 -3.97875 7.33875 -4 6 C-4.66 6 -5.32 6 -6 6 C-6 5.34 -6 4.68 -6 4 C-7.32 3.67 -8.64 3.34 -10 3 C-2.25 1.875 -2.25 1.875 0 3 C0 2.01 0 1.02 0 0 Z M-2 8 C-1 11 -1 11 -1 11 Z " fill="#AC8B8B" transform="translate(69,33)"/>
<path d="M0 0 C0.66 0.66 1.32 1.32 2 2 C1.67 2.66 1.34 3.32 1 4 C2.32 3.67 3.64 3.34 5 3 C5 3.99 5 4.98 5 6 C4.360625 6.103125 3.72125 6.20625 3.0625 6.3125 C2.381875 6.539375 1.70125 6.76625 1 7 C0.67 7.99 0.34 8.98 0 10 C-0.969375 10.12375 -1.93875 10.2475 -2.9375 10.375 C-3.948125 10.58125 -4.95875 10.7875 -6 11 C-6.33 11.66 -6.66 12.32 -7 13 C-7 12.01 -7 11.02 -7 10 C-7.99 10 -8.98 10 -10 10 C-10 9.34 -10 8.68 -10 8 C-9.01 8 -8.02 8 -7 8 C-7 7.01 -7 6.02 -7 5 C-5.35 5 -3.7 5 -2 5 C-2 4.34 -2 3.68 -2 3 C-1.34 3 -0.68 3 0 3 C0 2.01 0 1.02 0 0 Z M-5 6 C-4 8 -4 8 -4 8 Z " fill="#AFBFBF" transform="translate(124,14)"/>
<path d="M0 0 C1.98 0 3.96 0 6 0 C6 0.66 6 1.32 6 2 C6.66 2 7.32 2 8 2 C8 3.32 8 4.64 8 6 C8.66 6.33 9.32 6.66 10 7 C7.57884809 9.42115191 6.35839475 9.60948898 3 10 C0.1875 9.5625 0.1875 9.5625 -2 9 C-2 8.34 -2 7.68 -2 7 C-1.01 6.67 -0.02 6.34 1 6 C1.73323796 3.98491642 1.73323796 3.98491642 2 2 C1.34 2 0.68 2 0 2 C0 1.34 0 0.68 0 0 Z M6 5 C7 7 7 7 7 7 Z " fill="#82C2C2" transform="translate(252,20)"/>
<path d="M0 0 C0.33 0.99 0.66 1.98 1 3 C0.01 3.495 0.01 3.495 -1 4 C-0.01 4.33 0.98 4.66 2 5 C4 8 4 8 4 11 C2.68 10.67 1.36 10.34 0 10 C0 9.34 0 8.68 0 8 C-2.31 8.33 -4.62 8.66 -7 9 C-6.67 7.68 -6.34 6.36 -6 5 C-6.66 5 -7.32 5 -8 5 C-8 4.01 -8 3.02 -8 2 C-5.36 2 -2.72 2 0 2 C0 1.34 0 0.68 0 0 Z " fill="#E1D2D1" transform="translate(138,42)"/>
<path d="M0 0 C0.433125 0.495 0.86625 0.99 1.3125 1.5 C2.99740483 3.33218192 2.99740483 3.33218192 6 3 C6 5.31 6 7.62 6 10 C6.639375 10.12375 7.27875 10.2475 7.9375 10.375 C8.618125 10.58125 9.29875 10.7875 10 11 C10.33 11.66 10.66 12.32 11 13 C9.02 13.33 7.04 13.66 5 14 C4.67 12.35 4.34 10.7 4 9 C3.34 9 2.68 9 2 9 C1.67 9.66 1.34 10.32 1 11 C0.12132271 7.26562152 -0.08912219 3.83225427 0 0 Z " fill="#337473" transform="translate(92,49)"/>
<path d="M0 0 C0.99 0.33 1.98 0.66 3 1 C2.67 1.33 2.34 1.66 2 2 C2.66 2.66 3.32 3.32 4 4 C3.01 4.33 2.02 4.66 1 5 C1.33 5.33 1.66 5.66 2 6 C2.08631874 7.34267413 2.10706473 8.68974322 2.09765625 10.03515625 C2.09282227 11.24848633 2.09282227 11.24848633 2.08789062 12.48632812 C2.07951172 13.33646484 2.07113281 14.18660156 2.0625 15.0625 C2.05798828 15.91650391 2.05347656 16.77050781 2.04882812 17.65039062 C2.03700373 19.76695663 2.01906769 21.88348685 2 24 C1.34 24 0.68 24 0 24 C0 18.72 0 13.44 0 8 C-0.66 8 -1.32 8 -2 8 C-2 6.35 -2 4.7 -2 3 C-1.34 3 -0.68 3 0 3 C0 2.01 0 1.02 0 0 Z " fill="#3CA4A4" transform="translate(147,35)"/>
<path d="M0 0 C2 3 2 3 2 5 C2.66 5 3.32 5 4 5 C4 5.99 4 6.98 4 8 C7.3 8 10.6 8 14 8 C14 8.99 14 9.98 14 11 C12.35 11 10.7 11 9 11 C9 10.67 9 10.34 9 10 C6.58354218 9.83312552 6.58354218 9.83312552 4 10 C3.34 10.66 2.68 11.32 2 12 C2 10.35 2 8.7 2 7 C1.01 8.32 0.02 9.64 -1 11 C-1.66 10.34 -2.32 9.68 -3 9 C-2.34 9 -1.68 9 -1 9 C-1 8.01 -1 7.02 -1 6 C-1.66 5.67 -2.32 5.34 -3 5 C-2.625 3.0625 -2.625 3.0625 -2 1 C-1.34 0.67 -0.68 0.34 0 0 Z " fill="#4E3E3E" transform="translate(279,52)"/>
<path d="M0 0 C1.98 0 3.96 0 6 0 C6 0.66 6 1.32 6 2 C6.99 2.33 7.98 2.66 9 3 C8.01 3 7.02 3 6 3 C5.67 3.99 5.34 4.98 5 6 C4.01 6 3.02 6 2 6 C2 6.66 2 7.32 2 8 C4.64 8 7.28 8 10 8 C10 8.66 10 9.32 10 10 C9.071875 9.95875 8.14375 9.9175 7.1875 9.875 C3.84190281 9.72863661 3.84190281 9.72863661 1 12 C0.87625 11.21625 0.7525 10.4325 0.625 9.625 C0.20882007 6.85942178 0.20882007 6.85942178 -2 5 C-1.360625 4.87625 -0.72125 4.7525 -0.0625 4.625 C0.618125 4.41875 1.29875 4.2125 2 4 C2.33 3.34 2.66 2.68 3 2 C2.01 1.34 1.02 0.68 0 0 Z " fill="#7F6D6D" transform="translate(91,34)"/>
<path d="M0 0 C4.571279 0.54855348 8.67435795 1.41744803 13 3 C13 3.33 13 3.66 13 4 C10.69 4.33 8.38 4.66 6 5 C6 4.01 6 3.02 6 2 C5.67 2.99 5.34 3.98 5 5 C4.01 5.33 3.02 5.66 2 6 C1.34 6.66 0.68 7.32 0 8 C-0.33 7.01 -0.66 6.02 -1 5 C-1.99 5 -2.98 5 -4 5 C-4 4.01 -4 3.02 -4 2 C-2.68 2 -1.36 2 0 2 C0 1.34 0 0.68 0 0 Z " fill="#726261" transform="translate(228,28)"/>
<path d="M0 0 C0.99 0 1.98 0 3 0 C3 0.99 3 1.98 3 3 C2.34 3.66 1.68 4.32 1 5 C1 5.66 1 6.32 1 7 C1.66 7.33 2.32 7.66 3 8 C1.60878255 10.7824349 -0.30164212 11.55210065 -3 13 C-3.66 13 -4.32 13 -5 13 C-5 12.34 -5 11.68 -5 11 C-4.34 11 -3.68 11 -3 11 C-3 10.01 -3 9.02 -3 8 C-3.66 8 -4.32 8 -5 8 C-4.649375 7.38125 -4.29875 6.7625 -3.9375 6.125 C-3.628125 5.42375 -3.31875 4.7225 -3 4 C-3.33 3.34 -3.66 2.68 -4 2 C-2.68 2 -1.36 2 0 2 C0 1.34 0 0.68 0 0 Z " fill="#541716" transform="translate(308,23)"/>
<path d="M0 0 C-0.33 1.65 -0.66 3.3 -1 5 C-2.32 5 -3.64 5 -5 5 C-5.33 6.32 -5.66 7.64 -6 9 C-7.32 8.67 -8.64 8.34 -10 8 C-9.67 7.01 -9.34 6.02 -9 5 C-8.34 4.67 -7.68 4.34 -7 4 C-7.99 3.67 -8.98 3.34 -10 3 C-10 2.34 -10 1.68 -10 1 C-6.78548731 -0.60725635 -3.56387464 -0.05748185 0 0 Z " fill="#B5F3F3" transform="translate(106,15)"/>
<path d="M0 0 C15.84 0 31.68 0 48 0 C48 0.33 48 0.66 48 1 C32.16 1 16.32 1 0 1 C0 0.67 0 0.34 0 0 Z " fill="#000000" transform="translate(122,67)"/>
<path d="M0 0 C0.66 0 1.32 0 2 0 C2.33 0.99 2.66 1.98 3 3 C3.66 3.66 4.32 4.32 5 5 C3.35 5 1.7 5 0 5 C-0.02578125 5.62648438 -0.0515625 6.25296875 -0.078125 6.8984375 C-0.13484375 7.71570312 -0.1915625 8.53296875 -0.25 9.375 C-0.29640625 10.18710937 -0.3428125 10.99921875 -0.390625 11.8359375 C-1 14 -1 14 -3.046875 15.2890625 C-4.01367188 15.64097656 -4.01367188 15.64097656 -5 16 C-5 12.33333333 -5 8.66666667 -5 5 C-4.01 5.33 -3.02 5.66 -2 6 C-1.34 4.02 -0.68 2.04 0 0 Z " fill="#6F1919" transform="translate(231,34)"/>
<path d="M0 0 C2.64 0 5.28 0 8 0 C7.67 1.65 7.34 3.3 7 5 C6.030625 4.979375 5.06125 4.95875 4.0625 4.9375 C1.12534105 4.64381501 1.12534105 4.64381501 0 6 C1.65 6.33 3.3 6.66 5 7 C4.67 7.66 4.34 8.32 4 9 C2.68 8.67 1.36 8.34 0 8 C-0.79953138 4.71303767 -1.09658936 3.28976808 0 0 Z " fill="#4D7075" transform="translate(8,32)"/>
<path d="M0 0 C0.99 0.33 1.98 0.66 3 1 C3 4.63 3 8.26 3 12 C1.35 12 -0.3 12 -2 12 C-2 11.01 -2 10.02 -2 9 C-2.66 8.34 -3.32 7.68 -4 7 C-3.01 7 -2.02 7 -1 7 C-0.67 4.69 -0.34 2.38 0 0 Z M1 3 C2 7 2 7 2 7 Z " fill="#7E3333" transform="translate(69,15)"/>
<path d="M0 0 C13.86 0 27.72 0 42 0 C42 0.33 42 0.66 42 1 C28.14 1 14.28 1 0 1 C0 0.67 0 0.34 0 0 Z " fill="#000000" transform="translate(71,67)"/>
<path d="M0 0 C2 2 2 2 2 7 C6.62 7 11.24 7 16 7 C16 7.33 16 7.66 16 8 C11.05 8 6.1 8 1 8 C0.67 8.66 0.34 9.32 0 10 C0 8.35 0 6.7 0 5 C-1.65 5 -3.3 5 -5 5 C-4.34 3.68 -3.68 2.36 -3 1 C-3 1.66 -3 2.32 -3 3 C-2.01 3 -1.02 3 0 3 C0 2.01 0 1.02 0 0 Z " fill="#7CBDBD" transform="translate(44,57)"/>
<path d="M0 0 C3.63 0.33 7.26 0.66 11 1 C10.67 1.99 10.34 2.98 10 4 C8.02 4 6.04 4 4 4 C3.67 4.66 3.34 5.32 3 6 C2.01 5.67 1.02 5.34 0 5 C0 4.34 0 3.68 0 3 C-0.66 2.67 -1.32 2.34 -2 2 C-1.34 2 -0.68 2 0 2 C0 1.34 0 0.68 0 0 Z " fill="#C4C4C4" transform="translate(132,31)"/>
<path d="M0 0 C0.33 0 0.66 0 1 0 C2.32286246 4.96073422 2.08893197 9.91111512 2 15 C1.34 15 0.68 15 0 15 C-3.10169492 10.86440678 -3.10169492 10.86440678 -2.75 7.875 C-2.5025 7.25625 -2.255 6.6375 -2 6 C-1.67 5.01 -1.34 4.02 -1 3 C-0.67 2.01 -0.34 1.02 0 0 Z " fill="#389292" transform="translate(11,15)"/>
<path d="M0 0 C0.99 0.33 1.98 0.66 3 1 C4.125 6.75 4.125 6.75 3 9 C0.5625 9.75 0.5625 9.75 -2 10 C-2.66 9.34 -3.32 8.68 -4 8 C-3.01 7.67 -2.02 7.34 -1 7 C-1 6.34 -1 5.68 -1 5 C-1.66 5 -2.32 5 -3 5 C-3 3 -3 3 -1.5 1.375 C-1.005 0.92125 -0.51 0.4675 0 0 Z M2 5 C3 7 3 7 3 7 Z " fill="#926464" transform="translate(254,31)"/>
<path d="M0 0 C1.12329712 0.07069702 1.12329712 0.07069702 2.26928711 0.14282227 C3.07817383 0.19116211 3.88706055 0.23950195 4.72045898 0.28930664 C5.99566406 0.37341797 5.99566406 0.37341797 7.29663086 0.45922852 C8.57763672 0.53753906 8.57763672 0.53753906 9.88452148 0.61743164 C12.00135081 0.74751612 14.1177833 0.88402822 16.23413086 1.02172852 C16.23413086 1.35172852 16.23413086 1.68172852 16.23413086 2.02172852 C14.78780273 2.04299805 14.78780273 2.04299805 13.31225586 2.06469727 C12.04897461 2.11239258 10.78569336 2.16008789 9.48413086 2.20922852 C8.23116211 2.2440332 6.97819336 2.27883789 5.68725586 2.31469727 C1.46083466 3.18006179 0.60437353 4.54943376 -1.76586914 8.02172852 C-2.42586914 8.02172852 -3.08586914 8.02172852 -3.76586914 8.02172852 C-2.74922732 0.03382846 -2.74922732 0.03382846 0 0 Z " fill="#AEEFEF" transform="translate(213.765869140625,13.978271484375)"/>
<path d="M0 0 C2.33760758 3.71267087 1.9611085 4.19445748 1 9 C-7.25 9 -15.5 9 -24 9 C-24 8.34 -24 7.68 -24 7 C-16.41 7.33 -8.82 7.66 -1 8 C-0.67 5.36 -0.34 2.72 0 0 Z " fill="#160A0A" transform="translate(255,57)"/>
<path d="M0 0 C0.33 1.32 0.66 2.64 1 4 C0.01 4.33 -0.98 4.66 -2 5 C-2 6.32 -2 7.64 -2 9 C-2.66 9 -3.32 9 -4 9 C-4.33 9.99 -4.66 10.98 -5 12 C-5.66 11.67 -6.32 11.34 -7 11 C-6.67 10.01 -6.34 9.02 -6 8 C-5.34 8 -4.68 8 -4 8 C-4.33 7.01 -4.66 6.02 -5 5 C-5.66 5 -6.32 5 -7 5 C-7 4.34 -7 3.68 -7 3 C-5.68 3 -4.36 3 -3 3 C-3 2.34 -3 1.68 -3 1 C-2.01 0.67 -1.02 0.34 0 0 Z " fill="#603130" transform="translate(144,20)"/>
<path d="M0 0 C2.97 0.495 2.97 0.495 6 1 C6 4.96 6 8.92 6 13 C4.68 12.67 3.36 12.34 2 12 C2 9.66666667 2 7.33333333 2 5 C0.54166642 3.37485532 0.54166642 3.37485532 -1 2 C-0.67 1.34 -0.34 0.68 0 0 Z M4 8 C5 11 5 11 5 11 Z " fill="#60ABAB" transform="translate(144,14)"/>
<path d="M0 0 C2.97 0.495 2.97 0.495 6 1 C6 1.66 6 2.32 6 3 C5.01 3.495 5.01 3.495 4 4 C4.66 6.31 5.32 8.62 6 11 C3 11 3 11 0 10 C0.66 7.69 1.32 5.38 2 3 C1.34 3 0.68 3 0 3 C0 2.01 0 1.02 0 0 Z M3 5 C4 7 4 7 4 7 Z " fill="#78BFBF" transform="translate(200,49)"/>
<path d="M0 0 C2.97 0.495 2.97 0.495 6 1 C6.33 2.65 6.66 4.3 7 6 C6.01 6 5.02 6 4 6 C4 6.66 4 7.32 4 8 C3.34 8 2.68 8 2 8 C1.67 6.68 1.34 5.36 1 4 C-2.3 3.67 -5.6 3.34 -9 3 C-9 2.67 -9 2.34 -9 2 C-6.03 2 -3.06 2 0 2 C0 1.34 0 0.68 0 0 Z " fill="#778D8D" transform="translate(205,22)"/>
<path d="M0 0 C2.125 0.9375 2.125 0.9375 4 2 C3.67 3.65 3.34 5.3 3 7 C1.02 7.33 -0.96 7.66 -3 8 C-2.67 7.34 -2.34 6.68 -2 6 C-2.66 5.34 -3.32 4.68 -4 4 C-2.68 4 -1.36 4 0 4 C0 3.34 0 2.68 0 2 C-0.66 1.67 -1.32 1.34 -2 1 C-1.34 0.67 -0.68 0.34 0 0 Z " fill="#7E3D3D" transform="translate(307,15)"/>
<path d="M0 0 C0.66 0.99 1.32 1.98 2 3 C1.01 3.99 0.02 4.98 -1 6 C-0.01 7.485 -0.01 7.485 1 9 C0.34 9 -0.32 9 -1 9 C-1.33 9.66 -1.66 10.32 -2 11 C-2.33 10.67 -2.66 10.34 -3 10 C-3.99 10 -4.98 10 -6 10 C-6 8.68 -6 7.36 -6 6 C-5.01 6 -4.02 6 -3 6 C-3 4.68 -3 3.36 -3 2 C-2.01 2 -1.02 2 0 2 C0 1.34 0 0.68 0 0 Z " fill="#7B2E2E" transform="translate(229,50)"/>
<path d="M0 0 C0.99 0 1.98 0 3 0 C3.33 0.66 3.66 1.32 4 2 C4.99 2.33 5.98 2.66 7 3 C8.6875 6.0625 8.6875 6.0625 10 9 C7.69 9.33 5.38 9.66 3 10 C2.67 7.69 2.34 5.38 2 3 C1.34 3 0.68 3 0 3 C0 2.01 0 1.02 0 0 Z M4 4 C4.33 5.65 4.66 7.3 5 9 C5.33 9 5.66 9 6 9 C6 7.35 6 5.7 6 4 C5.34 4 4.68 4 4 4 Z " fill="#87D7D7" transform="translate(253,41)"/>
<path d="M0 0 C0 0.66 0 1.32 0 2 C-0.639375 2.185625 -1.27875 2.37125 -1.9375 2.5625 C-4.42126213 3.94246056 -4.42126213 3.94246056 -4.75 7.625 C-4.8325 8.73875 -4.915 9.8525 -5 11 C-5.33 11 -5.66 11 -6 11 C-6.33 7.7 -6.66 4.4 -7 1 C-8.65 1 -10.3 1 -12 1 C-12 0.67 -12 0.34 -12 0 C-3.42857143 -1.28571429 -3.42857143 -1.28571429 0 0 Z " fill="#D4A7A6" transform="translate(231,36)"/>
<path d="M0 0 C0.66 0.99 1.32 1.98 2 3 C2.33 3.33 2.66 3.66 3 4 C3.33 4 3.66 4 4 4 C4 5.65 4 7.3 4 9 C5.65 9 7.3 9 9 9 C9 9.33 9 9.66 9 10 C3.06 10.495 3.06 10.495 -3 11 C-3 10.34 -3 9.68 -3 9 C-1.68 8.67 -0.36 8.34 1 8 C0.67 6.35 0.34 4.7 0 3 C-0.66 3 -1.32 3 -2 3 C-2 2.34 -2 1.68 -2 1 C-1.34 0.67 -0.68 0.34 0 0 Z " fill="#927B7B" transform="translate(29,21)"/>
<path d="M0 0 C0.66 0 1.32 0 2 0 C2.33 0.99 2.66 1.98 3 3 C2.01 3.33 1.02 3.66 0 4 C0.020625 5.11375 0.04125 6.2275 0.0625 7.375 C0 11 0 11 -1 13 C-1.66 13 -2.32 13 -3 13 C-3 12.01 -3 11.02 -3 10 C-3.66 9.34 -4.32 8.68 -5 8 C-4.01 8 -3.02 8 -2 8 C-1.855625 6.865625 -1.71125 5.73125 -1.5625 4.5625 C-1 1 -1 1 0 0 Z " fill="#702C2B" transform="translate(231,14)"/>
<path d="M0 0 C1.65 0 3.3 0 5 0 C5.66 1.65 6.32 3.3 7 5 C5.02 5.99 5.02 5.99 3 7 C0 3.375 0 3.375 0 0 Z " fill="#87BCBC" transform="translate(285,15)"/>
<path d="M0 0 C0.99 0.33 1.98 0.66 3 1 C2.625 2.9375 2.625 2.9375 2 5 C1.01 5.495 1.01 5.495 0 6 C1.32 6.66 2.64 7.32 4 8 C3.01 8.33 2.02 8.66 1 9 C0.34 9.66 -0.32 10.32 -1 11 C-1.66 10.67 -2.32 10.34 -3 10 C-3.125 5.25 -3.125 5.25 -2 3 C-1.34 3 -0.68 3 0 3 C0 2.01 0 1.02 0 0 Z " fill="#488C8C" transform="translate(175,54)"/>
<path d="M0 0 C2.5132982 2.5132982 2 3.62447307 2 7 C1.34 7 0.68 7 0 7 C-0.33 7.66 -0.66 8.32 -1 9 C-1.99 9 -2.98 9 -4 9 C-4.33 9.66 -4.66 10.32 -5 11 C-4.41196203 7.97580475 -3.77321882 4.98241547 -3 2 C-2.01 2 -1.02 2 0 2 C0 1.34 0 0.68 0 0 Z " fill="#6C2F2F" transform="translate(68,50)"/>
<path d="M0 0 C1.65 0.99 3.3 1.98 5 3 C4.40138258 5.35171131 3.73075648 7.6859378 3 10 C2.01 10.495 2.01 10.495 1 11 C0.34 10.34 -0.32 9.68 -1 9 C-0.67 8.67 -0.34 8.34 0 8 C0.07148199 6.64756083 0.08399454 5.29165633 0.0625 3.9375 C0.041875 2.638125 0.02125 1.33875 0 0 Z " fill="#7F2727" transform="translate(65,39)"/>
<path d="M0 0 C1.4384798 0.06423833 2.87666999 0.14163547 4.3125 0.25 C3.9825 1.57 3.6525 2.89 3.3125 4.25 C2.425625 4.064375 1.53875 3.87875 0.625 3.6875 C-2.53928811 3.26957516 -4.63589642 3.44222258 -7.6875 4.25 C-5.84004374 0.30875998 -4.09551026 -0.02575793 0 0 Z " fill="#9A8D8D" transform="translate(173.6875,30.75)"/>
<path d="M0 0 C2.97 0 5.94 0 9 0 C9 1.32 9 2.64 9 4 C7.02 4.33 5.04 4.66 3 5 C3 4.34 3 3.68 3 3 C2.01 2.67 1.02 2.34 0 2 C0 1.34 0 0.68 0 0 Z " fill="#BCC6C6" transform="translate(92,47)"/>
<path d="M0 0 C1.65 0 3.3 0 5 0 C5 1.32 5 2.64 5 4 C3.4221875 4.2165625 3.4221875 4.2165625 1.8125 4.4375 C-1.15460549 4.87526966 -4.06794366 5.37804866 -7 6 C-5.02579865 3.47740939 -4.03254358 3.0070192 -0.8125 2.3125 C0.5796875 2.1578125 0.5796875 2.1578125 2 2 C1.34 1.34 0.68 0.68 0 0 Z " fill="#AED0D0" transform="translate(100,36)"/>
<path d="M0 0 C0.66 0.99 1.32 1.98 2 3 C1.67 3.66 1.34 4.32 1 5 C3.31 5 5.62 5 8 5 C8 5.33 8 5.66 8 6 C6.02 6 4.04 6 2 6 C2 6.66 2 7.32 2 8 C3.32 8.33 4.64 8.66 6 9 C2.37471432 9.20140476 0.13498292 8.85776765 -3 7 C-3 6.34 -3 5.68 -3 5 C-2.01 5 -1.02 5 0 5 C0 3.35 0 1.7 0 0 Z " fill="#BDECEC" transform="translate(150,22)"/>
<path d="M0 0 C0.33 0 0.66 0 1 0 C1.33 2.31 1.66 4.62 2 7 C-1.3 6.67 -4.6 6.34 -8 6 C-8 5.34 -8 4.68 -8 4 C-7.05125 3.896875 -6.1025 3.79375 -5.125 3.6875 C-1.70892499 3.31460705 -1.70892499 3.31460705 0 0 Z " fill="#749797" transform="translate(173,23)"/>
<path d="M0 0 C2.31 0.33 4.62 0.66 7 1 C6.01 2.485 6.01 2.485 5 4 C5.66 4.66 6.32 5.32 7 6 C6.01 6.33 5.02 6.66 4 7 C3.67 7.66 3.34 8.32 3 9 C2.01 6.03 1.02 3.06 0 0 Z " fill="#94D3D3" transform="translate(256,31)"/>
<path d="M0 0 C1.875 0.5625 1.875 0.5625 4 2 C5.52181826 5.91324696 6.60633173 8.98417068 5 13 C4.34 13 3.68 13 3 13 C3 10.03 3 7.06 3 4 C2.34 3.67 1.68 3.34 1 3 C0.67 2.01 0.34 1.02 0 0 Z " fill="#4FD3D3" transform="translate(172,38)"/>
<path d="M0 0 C0.66 0 1.32 0 2 0 C2 2.31 2 4.62 2 7 C0.3125 8.125 0.3125 8.125 -2 9 C-4.75 8.125 -4.75 8.125 -7 7 C-7 6.67 -7 6.34 -7 6 C-4.69 6 -2.38 6 0 6 C0 5.34 0 4.68 0 4 C-0.66 3.67 -1.32 3.34 -2 3 C-1.34 2.01 -0.68 1.02 0 0 Z " fill="#571C1C" transform="translate(306,36)"/>
<path d="M0 0 C2 1.125 2 1.125 4 3 C4.25 6.1875 4.25 6.1875 4 9 C3.34 9 2.68 9 2 9 C1.67 9.66 1.34 10.32 1 11 C0.12132271 7.26562152 -0.08912219 3.83225427 0 0 Z " fill="#BB3131" transform="translate(92,49)"/>
<path d="M0 0 C-1.0625 1.5 -1.0625 1.5 -3 3 C-6.5625 3.3125 -6.5625 3.3125 -10 3 C-10.66 2.34 -11.32 1.68 -12 1 C-9.19301445 -1.80698555 -3.49996404 -1.25998705 0 0 Z M-8 1 C-4 2 -4 2 -4 2 Z " fill="#563B3B" transform="translate(124,63)"/>
<path d="M0 0 C2.64 0.66 5.28 1.32 8 2 C6.60878255 4.7824349 4.69835788 5.55210065 2 7 C1.34 7 0.68 7 0 7 C0 6.34 0 5.68 0 5 C0.66 5 1.32 5 2 5 C2 4.01 2 3.02 2 2 C1.34 2 0.68 2 0 2 C0 1.34 0 0.68 0 0 Z " fill="#835757" transform="translate(303,29)"/>
<path d="M0 0 C0.99 0 1.98 0 3 0 C4.15941038 3.47823115 3.70820884 5.45895578 3 9 C2.01 9 1.02 9 0 9 C0 6.03 0 3.06 0 0 Z " fill="#6E1615" transform="translate(191,17)"/>
<path d="M0 0 C7.59 0 15.18 0 23 0 C23 0.33 23 0.66 23 1 C15.41 1 7.82 1 0 1 C0 0.67 0 0.34 0 0 Z " fill="#000000" transform="translate(231,67)"/>
<path d="M0 0 C-0.33 0.99 -0.66 1.98 -1 3 C-3.97 3 -6.94 3 -10 3 C-10 2.34 -10 1.68 -10 1 C-6.78548731 -0.60725635 -3.56387464 -0.05748185 0 0 Z " fill="#B4EAEA" transform="translate(106,15)"/>
<path d="M0 0 C1.98 0.495 1.98 0.495 4 1 C3.34 3.31 2.68 5.62 2 8 C1.34 8 0.68 8 0 8 C-1.125 2.25 -1.125 2.25 0 0 Z M1 2 C2 4 2 4 2 4 Z " fill="#851A1A" transform="translate(169,55)"/>
<path d="M0 0 C2.01822917 0.06510417 4.03645833 0.13020833 6.0546875 0.1953125 C6.0546875 0.8553125 6.0546875 1.5153125 6.0546875 2.1953125 C2.35927164 3.14556229 -0.24989664 3.14556229 -3.9453125 2.1953125 C-1.9453125 0.1953125 -1.9453125 0.1953125 0 0 Z " fill="#95C8C7" transform="translate(103.9453125,58.8046875)"/>
<path d="M0 0 C0.33 0 0.66 0 1 0 C1.22185844 2.26955186 1.42705515 4.54073755 1.625 6.8125 C1.74101562 8.07707031 1.85703125 9.34164062 1.9765625 10.64453125 C2 14 2 14 0 17 C-0.89316269 11.06390334 -0.97040422 5.93024803 0 0 Z " fill="#12D4D4" transform="translate(231,43)"/>
<path d="M0 0 C4.571279 0.54855348 8.67435795 1.41744803 13 3 C13 3.33 13 3.66 13 4 C10.69 4.33 8.38 4.66 6 5 C6 4.01 6 3.02 6 2 C4.68 2.33 3.36 2.66 2 3 C1.34 2.01 0.68 1.02 0 0 Z " fill="#5A7978" transform="translate(228,28)"/>
<path d="M0 0 C0.33 0.66 0.66 1.32 1 2 C-5.27 2 -11.54 2 -18 2 C-18 1.67 -18 1.34 -18 1 C-12.06 0.67 -6.12 0.34 0 0 Z " fill="#0C0000" transform="translate(305,66)"/>
<path d="M0 0 C0.33 0.99 0.66 1.98 1 3 C-4.625 5 -4.625 5 -8 5 C-8 4.01 -8 3.02 -8 2 C-5.36 2 -2.72 2 0 2 C0 1.34 0 0.68 0 0 Z " fill="#4F2F2E" transform="translate(138,42)"/>
<path d="M0 0 C2 3.75 2 3.75 2 6 C-0.60582371 6.93065133 -1.64198224 7.14917407 -4.25 6.0625 C-4.8275 5.711875 -5.405 5.36125 -6 5 C-5.38125 4.9175 -4.7625 4.835 -4.125 4.75 C-1.81562433 4.18741541 -1.81562433 4.18741541 -0.75 1.9375 C-0.5025 1.298125 -0.255 0.65875 0 0 Z " fill="#5F4545" transform="translate(257,23)"/>
<path d="M0 0 C1.32 0.33 2.64 0.66 4 1 C4 1.99 4 2.98 4 4 C1.36 4.33 -1.28 4.66 -4 5 C-3.34 4.67 -2.68 4.34 -2 4 C-2 3.34 -2 2.68 -2 2 C-1.34 2 -0.68 2 0 2 C0 1.34 0 0.68 0 0 Z " fill="#6E4141" transform="translate(275,15)"/>
<path d="M0 0 C1.98 0.495 1.98 0.495 4 1 C2.515 4.465 2.515 4.465 1 8 C-0.42944945 5.64561267 -1.08661261 4.51967567 -0.625 1.75 C-0.41875 1.1725 -0.2125 0.595 0 0 Z " fill="#9AEEEE" transform="translate(16,52)"/>
<path d="M0 0 C0.66 0 1.32 0 2 0 C1.690625 0.5775 1.38125 1.155 1.0625 1.75 C0.07416636 3.84294184 -0.5168613 5.74535275 -1 8 C-1.66 8 -2.32 8 -3 8 C-3 6.02 -3 4.04 -3 2 C-2.01 2 -1.02 2 0 2 C0 1.34 0 0.68 0 0 Z " fill="#97FBFB" transform="translate(101,49)"/>
<path d="M0 0 C6.27 0 12.54 0 19 0 C19 0.33 19 0.66 19 1 C12.73 1 6.46 1 0 1 C0 0.67 0 0.34 0 0 Z " fill="#D0EDED" transform="translate(234,13)"/>
<path d="M0 0 C6.27 0 12.54 0 19 0 C19 0.33 19 0.66 19 1 C12.73 1 6.46 1 0 1 C0 0.67 0 0.34 0 0 Z " fill="#B7D0D0" transform="translate(171,13)"/>
<path d="M0 0 C6.27 0 12.54 0 19 0 C19 0.33 19 0.66 19 1 C12.73 1 6.46 1 0 1 C0 0.67 0 0.34 0 0 Z " fill="#FAF1F1" transform="translate(125,13)"/>
<path d="M0 0 C0.66 0.33 1.32 0.66 2 1 C2 1.66 2 2.32 2 3 C1.01 3 0.02 3 -1 3 C-1.33 3.99 -1.66 4.98 -2 6 C-2.99 5.67 -3.98 5.34 -5 5 C-4.67 4.01 -4.34 3.02 -4 2 C-2.68 2 -1.36 2 0 2 C0 1.34 0 0.68 0 0 Z " fill="#A9E8E8" transform="translate(261,51)"/>
<path d="M0 0 C5.94 0 11.88 0 18 0 C18 0.33 18 0.66 18 1 C12.06 1 6.12 1 0 1 C0 0.67 0 0.34 0 0 Z " fill="#E5F7F7" transform="translate(213,13)"/>
<path d="M0 0 C5.94 0 11.88 0 18 0 C18 0.33 18 0.66 18 1 C12.06 1 6.12 1 0 1 C0 0.67 0 0.34 0 0 Z " fill="#F0F7F7" transform="translate(98,13)"/>
<path d="M0 0 C5.94 0 11.88 0 18 0 C18 0.33 18 0.66 18 1 C12.06 1 6.12 1 0 1 C0 0.67 0 0.34 0 0 Z " fill="#E9E9E9" transform="translate(53,13)"/>
<path d="M0 0 C5.61 0 11.22 0 17 0 C17 0.33 17 0.66 17 1 C11.39 1 5.78 1 0 1 C0 0.67 0 0.34 0 0 Z " fill="#000000" transform="translate(206,67)"/>
<path d="M0 0 C5.61 0 11.22 0 17 0 C17 0.33 17 0.66 17 1 C11.39 1 5.78 1 0 1 C0 0.67 0 0.34 0 0 Z " fill="#000000" transform="translate(45,67)"/>
<path d="M0 0 C5.61 0 11.22 0 17 0 C17 0.33 17 0.66 17 1 C11.39 1 5.78 1 0 1 C0 0.67 0 0.34 0 0 Z " fill="#000000" transform="translate(17,67)"/>
<path d="M0 0 C2.97 0 5.94 0 9 0 C9 0.33 9 0.66 9 1 C6.69 1.33 4.38 1.66 2 2 C2 2.66 2 3.32 2 4 C1.34 4 0.68 4 0 4 C0 2.68 0 1.36 0 0 Z " fill="#AFDBDB" transform="translate(124,60)"/>
<path d="M0 0 C0.99 0.33 1.98 0.66 3 1 C3 2.65 3 4.3 3 6 C2.01 6 1.02 6 0 6 C-1.125 2.25 -1.125 2.25 0 0 Z " fill="#6EB0B0" transform="translate(258,57)"/>
<path d="M0 0 C0.66 0 1.32 0 2 0 C4 3 4 3 4 6 C2.68 5.67 1.36 5.34 0 5 C-0.5625 3.0625 -0.5625 3.0625 -1 1 C-0.67 0.67 -0.34 0.34 0 0 Z " fill="#863232" transform="translate(138,47)"/>
<path d="M0 0 C0.66 0 1.32 0 2 0 C2.33 0.99 2.66 1.98 3 3 C3.66 3.66 4.32 4.32 5 5 C3.35 5 1.7 5 0 5 C-0.33 5.66 -0.66 6.32 -1 7 C-0.67 4.69 -0.34 2.38 0 0 Z " fill="#3D6967" transform="translate(231,34)"/>
<path d="M0 0 C0.66 0 1.32 0 2 0 C2 1.98 2 3.96 2 6 C0.02 6.33 -1.96 6.66 -4 7 C-4 6.34 -4 5.68 -4 5 C-3.01 4.67 -2.02 4.34 -1 4 C-0.26676204 1.98491642 -0.26676204 1.98491642 0 0 Z " fill="#DBA09F" transform="translate(254,22)"/>
<path d="M0 0 C5.61 0 11.22 0 17 0 C17 0.33 17 0.66 17 1 C11.39 1 5.78 1 0 1 C0 0.67 0 0.34 0 0 Z " fill="#FFFFFF" transform="translate(150,13)"/>
<path d="M0 0 C5.28 0 10.56 0 16 0 C16 0.33 16 0.66 16 1 C10.72 1 5.44 1 0 1 C0 0.67 0 0.34 0 0 Z " fill="#D7F7F7" transform="translate(260,13)"/>
<path d="M0 0 C0.99 0.495 0.99 0.495 2 1 C1.67 2.65 1.34 4.3 1 6 C0.67 6 0.34 6 0 6 C0 4.02 0 2.04 0 0 Z " fill="#240000" transform="translate(171,50)"/>
<path d="M0 0 C0.66 0 1.32 0 2 0 C2.33 0.99 2.66 1.98 3 3 C2.01 3 1.02 3 0 3 C0 2.01 0 1.02 0 0 Z " fill="#006161" transform="translate(7,16)"/>
<path d="M0 0 C0.33 0 0.66 0 1 0 C1 1.98 1 3.96 1 6 C0.67 6 0.34 6 0 6 C0 4.02 0 2.04 0 0 Z " fill="#007F7F" transform="translate(12,41)"/>
<path d="M0 0 C0.66 0 1.32 0 2 0 C2 0.99 2 1.98 2 3 C1.34 3 0.68 3 0 3 C0 2.01 0 1.02 0 0 Z " fill="#000000" transform="translate(0,37)"/>
<path d="M0 0 C0.66 0 1.32 0 2 0 C2 0.99 2 1.98 2 3 C1.34 3 0.68 3 0 3 C0 2.01 0 1.02 0 0 Z " fill="#000000" transform="translate(0,31)"/>
<path d="M0 0 C0.99 0.33 1.98 0.66 3 1 C2.01 1.33 1.02 1.66 0 2 C0 1.34 0 0.68 0 0 Z " fill="#000000" transform="translate(228,62)"/>
<path d="M0 0 C0.33 1.32 0.66 2.64 1 4 C0.34 3.67 -0.32 3.34 -1 3 C-0.67 2.01 -0.34 1.02 0 0 Z " fill="#00D4D4" transform="translate(12,54)"/>
<path d="M0 0 C0.99 0.99 1.98 1.98 3 3 C2.01 2.67 1.02 2.34 0 2 C0 1.34 0 0.68 0 0 Z " fill="#000000" transform="translate(141,47)"/>
<path d="M0 0 C0.99 0.495 0.99 0.495 2 1 C1.01 2.485 1.01 2.485 0 4 C0 2.68 0 1.36 0 0 Z " fill="#44AAAA" transform="translate(143,37)"/>
<path d="M0 0 C0.99 1.485 0.99 1.485 2 3 C1.34 3 0.68 3 0 3 C0 2.01 0 1.02 0 0 Z " fill="#7F0000" transform="translate(314,59)"/>
<path d="M0 0 C1 4 1 4 1 4 Z " fill="#00BFBF" transform="translate(12,48)"/>
<path d="" fill="#000000" transform="translate(0,0)"/>
<path d="M0 0 C0.66 0.66 1.32 1.32 2 2 C1.34 2 0.68 2 0 2 C0 1.34 0 0.68 0 0 Z " fill="#55AAAA" transform="translate(282,19)"/>
<path d="M0 0 C0.66 0.66 1.32 1.32 2 2 C1.34 2 0.68 2 0 2 C0 1.34 0 0.68 0 0 Z " fill="#000000" transform="translate(280,16)"/>
<path d="M0 0 C3 1 3 1 3 1 Z " fill="#E25555" transform="translate(276,14)"/>
<path d="M0 0 C2 1 2 1 2 1 Z " fill="#000000" transform="translate(2,80)"/>
<path d="M0 0 C2 1 2 1 2 1 Z " fill="#000000" transform="translate(311,64)"/>
<path d="" fill="#7F0000" transform="translate(0,0)"/>
<path d="" fill="#00FFFF" transform="translate(0,0)"/>
<path d="" fill="#7F0000" transform="translate(0,0)"/>
<path d="" fill="#3F0000" transform="translate(0,0)"/>
<path d="M0 0 C2 1 2 1 2 1 Z " fill="#7F0000" transform="translate(140,43)"/>
<path d="" fill="#000000" transform="translate(0,0)"/>
<path d="" fill="#007F7F" transform="translate(0,0)"/>
<path d="" fill="#FF0000" transform="translate(0,0)"/>
<path d="" fill="#00FFFF" transform="translate(0,0)"/>
<path d="M0 0 C2 1 2 1 2 1 Z " fill="#000000" transform="translate(0,0)"/>
<path d="" fill="#000000" transform="translate(0,0)"/>
<path d="" fill="#007F7F" transform="translate(0,0)"/>
<path d="" fill="#000000" transform="translate(0,0)"/>
<path d="" fill="#000000" transform="translate(0,0)"/>
<path d="" fill="#000000" transform="translate(0,0)"/>
<path d="" fill="#000000" transform="translate(0,0)"/>
<path d="" fill="#000000" transform="translate(0,0)"/>
<path d="" fill="#000000" transform="translate(0,0)"/>
<path d="" fill="#000000" transform="translate(0,0)"/>
<path d="" fill="#000000" transform="translate(0,0)"/>
<path d="" fill="#00FFFF" transform="translate(0,0)"/>
<path d="" fill="#000000" transform="translate(0,0)"/>
<path d="" fill="#000000" transform="translate(0,0)"/>
<path d="" fill="#000000" transform="translate(0,0)"/>
<path d="" fill="#FF0000" transform="translate(0,0)"/>
<path d="" fill="#000000" transform="translate(0,0)"/>
<path d="" fill="#FF0000" transform="translate(0,0)"/>
<path d="" fill="#000000" transform="translate(0,0)"/>
<path d="" fill="#000000" transform="translate(0,0)"/>
<path d="" fill="#007F7F" transform="translate(0,0)"/>
<path d="" fill="#000000" transform="translate(0,0)"/>
<path d="" fill="#000000" transform="translate(0,0)"/>
<path d="" fill="#00FFFF" transform="translate(0,0)"/>
<path d="" fill="#000000" transform="translate(0,0)"/>
<path d="" fill="#000000" transform="translate(0,0)"/>
<path d="" fill="#00FFFF" transform="translate(0,0)"/>
<path d="" fill="#FF0000" transform="translate(0,0)"/>
<path d="" fill="#000000" transform="translate(0,0)"/>
<path d="" fill="#00FFFF" transform="translate(0,0)"/>
<path d="" fill="#00FFFF" transform="translate(0,0)"/>
<path d="" fill="#000000" transform="translate(0,0)"/>
</svg>
